<svg height="512pt" viewBox="0 0 512 512" width="512pt" xmlns="http://www.w3.org/2000/svg"><path d="m68.265625 34.132812h375.46875c18.851563 0 34.132813 15.28125 34.132813 34.132813v375.46875c0 18.851563-15.28125 34.132813-34.132813 34.132813h-375.46875c-18.851563 0-34.132813-15.28125-34.132813-34.132813v-375.46875c0-18.851563 15.28125-34.132813 34.132813-34.132813zm0 0" fill="#cad9fc"/><path d="m68.265625 34.132812h349.867187c18.851563 0 34.132813 15.28125 34.132813 34.132813v375.46875c0 18.851563-15.28125 34.132813-34.132813 34.132813h-349.867187c-18.851563 0-34.132813-15.28125-34.132813-34.132813v-375.46875c0-18.851563 15.28125-34.132813 34.132813-34.132813zm0 0" fill="#e8edfc"/><path d="m76.800781 68.265625h358.398438c4.714843 0 8.535156 3.820313 8.535156 8.535156v358.398438c0 4.714843-3.820313 8.535156-8.535156 8.535156h-358.398438c-4.714843 0-8.535156-3.820313-8.535156-8.535156v-358.398438c0-4.714843 3.820313-8.535156 8.535156-8.535156zm0 0" fill="#cad9fc"/><path d="m77.425781 68.265625c-4.878906-.152344-8.964843 3.660156-9.160156 8.535156v144.765625l153.300781-153.300781zm0 0" fill="#d3dff2"/><path d="m221.566406 68.265625-153.300781 153.300781v.085938l153.386719-153.386719zm0 0" fill="#d3dff2"/><path d="m221.652344 68.265625-153.386719 153.386719v.078125l153.464844-153.464844zm0 0" fill="#d8e1f2"/><path d="m221.730469 68.265625-153.464844 153.464844v.085937l153.550781-153.550781zm0 0" fill="#dce3f2"/><path d="m221.816406 68.265625-153.550781 153.550781v.085938l153.636719-153.636719zm0 0" fill="#e0e5f2"/><path d="m221.902344 68.265625-153.636719 153.636719v.082031l153.71875-153.71875zm0 0" fill="#e4e7f2"/><path d="m221.984375 68.265625-153.71875 153.71875v.078125l153.796875-153.796875zm0 0" fill="#e7e8f2"/><path d="m222.0625 68.265625-153.796875 153.796875v.085938l153.882813-153.882813zm0 0" fill="#eaeaf2"/><path d="m222.148438 68.265625-153.882813 153.882813v.085937l153.96875-153.96875zm0 0" fill="#edebf2"/><path d="m222.234375 68.265625-153.96875 153.96875v.085937l154.054687-154.054687zm0 0" fill="#efecf2"/><path d="m222.320312 68.265625-154.054687 154.054687v.082032l154.128906-154.136719zm0 0" fill="#f1edf2"/><path d="m222.394531 68.265625-154.128906 154.136719v.078125l154.214844-154.214844zm0 0" fill="#f3eef2"/><path d="m222.480469 68.265625-154.214844 154.214844v.085937l154.300781-154.300781zm0 0" fill="#f5eef2"/><path d="m222.566406 68.265625-154.300781 154.300781v.085938l154.386719-154.386719zm0 0" fill="#f6eff2"/><path d="m222.652344 68.265625-154.386719 154.386719v.085937l154.472656-154.472656zm0 0" fill="#f8f0f2"/><path d="m222.738281 68.265625-154.472656 154.472656v.074219l154.546875-154.546875zm0 0" fill="#f9f0f2"/><path d="m222.8125 68.265625-154.546875 154.546875v.085938l154.632813-154.632813zm0 0" fill="#faf1f2"/><path d="m222.898438 68.265625-154.632813 154.632813v.085937l154.71875-154.71875zm0 0" fill="#fbf1f2"/><path d="m222.984375 68.265625-154.71875 154.71875v.085937l154.804687-154.804687zm0 0" fill="#fbf1f2"/><path d="m223.070312 68.265625-154.804687 154.804687v.078126l154.882813-154.882813zm0 0" fill="#fcf2f2"/><path d="m223.148438 68.265625-154.882813 154.882813v.082031l154.964844-154.964844zm0 0" fill="#fdf2f2"/><path d="m223.230469 68.265625-154.964844 154.964844v.085937l155.050781-155.050781zm0 0" fill="#fdf2f2"/><path d="m223.316406 68.265625-155.050781 155.050781v.085938l155.136719-155.136719zm0 0" fill="#fdf2f2"/><path d="m223.402344 68.265625-155.136719 155.136719v.078125l155.214844-155.214844zm0 0" fill="#fef2f2"/><path d="m223.480469 68.265625-155.214844 155.214844v.085937l155.300781-155.300781zm0 0" fill="#fef3f2"/><path d="m223.566406 68.265625-155.300781 155.300781v.082032l155.382813-155.382813zm0 0" fill="#fef3f2"/><path d="m223.648438 68.265625-155.382813 155.382813v.085937l155.46875-155.46875zm0 0" fill="#fef3f2"/><path d="m223.734375 68.265625-155.46875 155.46875v.078125l155.546875-155.546875zm0 0" fill="#fff3f2"/><path d="m223.8125 68.265625-155.546875 155.546875v.085938l155.632813-155.632813zm0 0" fill="#fff3f2"/><path d="m223.898438 68.265625-155.632813 155.632813v.085937l155.71875-155.71875zm0 0" fill="#fff3f2"/><path d="m223.984375 68.265625-155.71875 155.71875v.082031l155.800781-155.800781zm0 0" fill="#fff3f2"/><path d="m224.066406 68.265625-155.800781 155.800781v.085938l155.886719-155.886719zm0 0" fill="#fff3f2"/><path d="m224.152344 68.265625-155.886719 155.886719v.078125l155.964844-155.964844zm0 0" fill="#fff3f2"/><path d="m224.230469 68.265625-155.964844 155.964844v.085937l156.050781-156.050781zm0 0" fill="#fff3f2"/><path d="m224.316406 68.265625-156.050781 156.050781v.085938l156.136719-156.136719zm0 0" fill="#fff3f2"/><path d="m224.402344 68.265625-156.136719 156.136719v.085937l156.222656-156.222656zm0 0" fill="#fff3f2"/><path d="m224.488281 68.265625-156.222656 156.222656v.074219l156.296875-156.296875zm0 0" fill="#fff3f2"/><path d="m224.5625 68.265625-156.296875 156.296875v.085938l156.382813-156.382813zm0 0" fill="#fff3f2"/><path d="m224.648438 68.265625-156.382813 156.382813v.085937l156.46875-156.46875zm0 0" fill="#fff3f2"/><path d="m224.734375 68.265625-156.46875 156.46875v.085937l156.554687-156.554687zm0 0" fill="#fff3f2"/><path d="m224.820312 68.265625-156.554687 156.554687v.074219l156.628906-156.628906zm0 0" fill="#fff3f2"/><path d="m224.894531 68.265625-156.628906 156.628906v.085938l156.714844-156.714844zm0 0" fill="#fff3f2"/><path d="m224.980469 68.265625-156.714844 156.714844v.085937l156.800781-156.800781zm0 0" fill="#fff3f2"/><path d="m225.066406 68.265625-156.800781 156.800781v.085938l156.886719-156.886719zm0 0" fill="#fff3f2"/><path d="m225.152344 68.265625-156.886719 156.886719v.078125l156.964844-156.964844zm0 0" fill="#fff3f2"/><path d="m225.230469 68.265625-156.964844 156.964844v40.769531l197.734375-197.734375zm0 0" fill="#fff3f2"/><path d="m266 68.265625-197.734375 197.734375v118.488281l316.222656-316.222656zm0 0" fill="#d3dff2"/><path d="m384.488281 68.265625-316.222656 316.222656v.082031l316.304687-316.304687zm0 0" fill="#d3dff2"/><path d="m384.570312 68.265625-316.304687 316.304687v.085938l316.390625-316.390625zm0 0" fill="#d8e1f2"/><path d="m384.65625 68.265625-316.390625 316.390625v.085938l316.476563-316.476563zm0 0" fill="#dce3f2"/><path d="m384.742188 68.265625-316.476563 316.476563v.078124l316.554687-316.554687zm0 0" fill="#e0e5f2"/><path d="m384.820312 68.265625-316.554687 316.554687v.085938l316.640625-316.640625zm0 0" fill="#e4e7f2"/><path d="m384.90625 68.265625-316.640625 316.640625v.082031l316.722656-316.722656zm0 0" fill="#e7e8f2"/><path d="m384.988281 68.265625-316.722656 316.722656v.085938l316.808594-316.808594zm0 0" fill="#eaeaf2"/><path d="m385.074219 68.265625-316.808594 316.808594v.078125l316.886719-316.886719zm0 0" fill="#edebf2"/><path d="m385.152344 68.265625-316.886719 316.886719v.085937l316.972656-316.972656zm0 0" fill="#efecf2"/><path d="m385.238281 68.265625-316.972656 316.972656v.085938l317.058594-317.058594zm0 0" fill="#f1edf2"/><path d="m385.324219 68.265625-317.058594 317.058594v.082031l317.140625-317.140625zm0 0" fill="#f3eef2"/><path d="m385.40625 68.265625-317.140625 317.140625v.078125l317.21875-317.21875zm0 0" fill="#f5eef2"/><path d="m385.484375 68.265625-317.21875 317.21875v.085937l317.304687-317.304687zm0 0" fill="#f6eff2"/><path d="m385.570312 68.265625-317.304687 317.304687v.085938l317.390625-317.390625zm0 0" fill="#f8f0f2"/><path d="m385.65625 68.265625-317.390625 317.390625v.085938l317.476563-317.476563zm0 0" fill="#f9f0f2"/><path d="m385.742188 68.265625-317.476563 317.476563v.082031l317.558594-317.558594zm0 0" fill="#faf1f2"/><path d="m385.824219 68.265625-317.558594 317.558594v.078125l317.636719-317.636719zm0 0" fill="#fbf1f2"/><path d="m385.902344 68.265625-317.636719 317.636719v.085937l317.722656-317.722656zm0 0" fill="#fbf1f2"/><path d="m385.988281 68.265625-317.722656 317.722656v.085938l317.808594-317.808594zm0 0" fill="#fcf2f2"/><path d="m386.074219 68.265625-317.808594 317.808594v.085937l317.894531-317.894531zm0 0" fill="#fdf2f2"/><path d="m386.160156 68.265625-317.894531 317.894531v.074219l317.96875-317.96875zm0 0" fill="#fdf2f2"/><path d="m386.234375 68.265625-317.96875 317.96875v.085937l318.054687-318.054687zm0 0" fill="#fdf2f2"/><path d="m386.320312 68.265625-318.054687 318.054687v.085938l318.140625-318.140625zm0 0" fill="#fef2f2"/><path d="m386.40625 68.265625-318.140625 318.140625v.085938l318.226563-318.226563zm0 0" fill="#fef3f2"/><path d="m386.492188 68.265625-318.226563 318.226563v.078124l318.304687-318.304687zm0 0" fill="#fef3f2"/><path d="m386.570312 68.265625-318.304687 318.304687v.082032l318.386719-318.386719zm0 0" fill="#fef3f2"/><path d="m386.652344 68.265625-318.386719 318.386719v.085937l318.472656-318.472656zm0 0" fill="#fff3f2"/><path d="m386.738281 68.265625-318.472656 318.472656v.085938l318.558594-318.558594zm0 0" fill="#fff3f2"/><path d="m386.824219 68.265625-318.558594 318.558594v.078125l318.636719-318.636719zm0 0" fill="#fff3f2"/><path d="m386.902344 68.265625-318.636719 318.636719v.085937l318.722656-318.722656zm0 0" fill="#fff3f2"/><path d="m386.988281 68.265625-318.722656 318.722656v.082031l318.804687-318.804687zm0 0" fill="#fff3f2"/><path d="m387.070312 68.265625-318.804687 318.804687v.085938l318.890625-318.890625zm0 0" fill="#fff3f2"/><path d="m387.15625 68.265625-318.890625 318.890625v.085938l318.976563-318.976563zm0 0" fill="#fff3f2"/><path d="m387.242188 68.265625-318.976563 318.976563v.078124l319.054687-319.054687zm0 0" fill="#fff3f2"/><path d="m387.320312 68.265625-319.054687 319.054687v.085938l319.140625-319.140625zm0 0" fill="#fff3f2"/><path d="m387.40625 68.265625-319.140625 319.140625v.082031l319.222656-319.222656zm0 0" fill="#fff3f2"/><path d="m387.488281 68.265625-319.222656 319.222656v.085938l319.308594-319.308594zm0 0" fill="#fff3f2"/><path d="m387.574219 68.265625-319.308594 319.308594v.078125l319.386719-319.386719zm0 0" fill="#fff3f2"/><path d="m387.652344 68.265625-319.386719 319.386719v.085937l319.472656-319.472656zm0 0" fill="#fff3f2"/><path d="m387.738281 68.265625-319.472656 319.472656v.085938l319.558594-319.558594zm0 0" fill="#fff3f2"/><path d="m387.824219 68.265625-319.558594 319.558594v.085937l319.644531-319.644531zm0 0" fill="#fff3f2"/><path d="m387.910156 68.265625-319.644531 319.644531v.074219l319.71875-319.71875zm0 0" fill="#fff3f2"/><path d="m387.984375 68.265625-319.71875 319.71875v.085937l319.804687-319.804687zm0 0" fill="#fff3f2"/><path d="m388.070312 68.265625-319.804687 319.804687v.085938l319.890625-319.890625zm0 0" fill="#fff3f2"/><path d="m434.574219 68.265625h-46.421875l-319.886719 319.890625v47.042969c.023437 2.25.96875 4.390625 2.613281 5.921875l370.242188-370.242188c-1.761719-1.683594-4.109375-2.621094-6.546875-2.613281zm0 0" fill="#fff3f2"/><path d="m441.121094 70.878906-370.242188 370.242188.007813.007812 370.242187-370.242187zm0 0" fill="#fff3f2"/><path d="m441.128906 70.886719-370.242187 370.242187.007812.011719 370.234375-370.246094zm0 0" fill="#faf1f2"/><path d="m441.128906 70.894531-370.234375 370.246094.007813.007813 370.238281-370.238282zm0 0" fill="#f6eff2"/><path d="m441.140625 70.910156-370.238281 370.238282.007812.007812 370.238282-370.234375zm0 0" fill="#f2edf2"/><path d="m441.148438 70.921875-370.238282 370.234375v.015625l370.246094-370.242187zm0 0" fill="#eeebf2"/><path d="m441.15625 70.929688-370.246094 370.242187.011719.011719 370.242187-370.246094zm0 0" fill="#ebeaf2"/><path d="m441.164062 70.9375-370.242187 370.246094.007813.007812 370.242187-370.246094zm0 0" fill="#e8e8f2"/><path d="m441.171875 70.945312-370.242187 370.246094.007812.007813 370.234375-370.246094zm0 0" fill="#e5e7f2"/><path d="m441.171875 70.953125-370.234375 370.246094.007812.007812 370.238282-370.234375zm0 0" fill="#e3e6f2"/><path d="m441.183594 70.972656-370.238282 370.234375.007813.007813 370.238281-370.234375zm0 0" fill="#e1e5f2"/><path d="m441.191406 70.980469-370.238281 370.234375v.007812l370.246094-370.234375zm0 0" fill="#dfe4f2"/><path d="m441.199219 70.988281-370.246094 370.234375.019531.011719 370.234375-370.238281zm0 0" fill="#dde4f2"/><path d="m441.207031 70.996094-370.234375 370.238281.007813.007813 370.234375-370.234376zm0 0" fill="#dce3f2"/><path d="m441.214844 71.007812-370.234375 370.234376.007812.007812 370.226563-370.234375zm0 0" fill="#dae2f2"/><path d="m441.214844 71.015625-370.226563 370.234375h.007813l370.226562-370.226562zm0 0" fill="#d9e2f2"/><path d="m441.222656 71.023438-370.226562 370.226562.011718.007812 370.226563-370.21875zm0 0" fill="#d8e1f2"/><path d="m441.234375 71.039062-370.226563 370.21875.015626.007813 370.21875-370.21875zm0 0" fill="#d7e1f2"/><path d="m441.242188 71.046875-370.21875 370.21875.007812.011719 370.21875-370.21875zm0 0" fill="#d7e1f2"/><path d="m441.25 71.058594-370.21875 370.21875h.007812l370.21875-370.210938zm0 0" fill="#d6e0f2"/><path d="m441.257812 71.066406-370.21875 370.210938.007813.007812 370.210937-370.210937zm0 0" fill="#d5e0f2"/><path d="m441.257812 71.074219-370.210937 370.210937.019531.007813 370.199219-370.210938zm0 0" fill="#d5e0f2"/><path d="m441.265625 71.082031-370.199219 370.210938.007813.007812 370.203125-370.210937zm0 0" fill="#d5e0f2"/><path d="m441.277344 71.089844-370.203125 370.210937h.007812l370.203125-370.191406zm0 0" fill="#d4e0f2"/><path d="m441.285156 71.109375-370.203125 370.191406.007813.007813 370.203125-370.191406zm0 0" fill="#d4dff2"/><path d="m441.292969 71.117188-370.203125 370.191406.011718.011718 370.199219-370.195312zm0 0" fill="#d4dff2"/><path d="m441.300781 71.125-370.199219 370.195312.007813.007813 370.191406-370.195313zm0 0" fill="#d4dff2"/><g fill="#d3dff2"><path d="m441.300781 71.132812-370.191406 370.195313.015625.007813 370.183594-370.195313zm0 0"/><path d="m441.308594 71.140625-370.183594 370.195313h.007812l370.1875-370.183594zm0 0"/><path d="m441.320312 71.152344-370.1875 370.183594.007813.007812 370.1875-370.183594zm0 0"/><path d="m441.328125 71.160156-370.1875 370.183594.011719.007812 370.183594-370.175781zm0 0"/><path d="m441.335938 71.175781-370.183594 370.175781.015625.007813 370.167969-370.175781zm0 0"/><path d="m441.335938 71.183594-370.167969 370.175781h.007812l370.167969-370.164063zm0 0"/><path d="m441.34375 71.195312-370.167969 370.164063.007813.011719 370.167968-370.167969zm0 0"/><path d="m441.351562 71.203125-370.167968 370.167969.011718.007812 370.164063-370.167968zm0 0"/><path d="m441.359375 71.210938-370.164063 370.167968.007813.007813 370.167969-370.167969zm0 0"/><path d="m441.371094 71.21875-370.167969 370.167969h.015625l370.160156-370.160157zm0 0"/><path d="m441.378906 71.226562-370.160156 370.160157.007812.007812 370.152344-370.148437zm0 0"/><path d="m441.378906 71.246094-370.152344 370.148437.007813.007813 370.152344-370.148438zm0 0"/><path d="m441.386719 71.253906-370.152344 370.148438.011719.011718 370.148437-370.152343zm0 0"/><path d="m441.394531 71.261719-370.148437 370.152343h.007812l370.148438-370.144531zm0 0"/><path d="m441.402344 71.269531-370.148438 370.144531.015625.007813 370.144531-370.144531zm0 0"/><path d="m441.414062 71.277344-370.144531 370.144531.007813.007813 370.144531-370.140626zm0 0"/><path d="m441.421875 71.289062-370.144531 370.140626.011718.007812 370.132813-370.140625zm0 0"/><path d="m441.421875 71.296875-370.132813 370.140625h.007813l370.132813-370.125zm0 0"/><path d="m71.296875 441.441406c1.703125 1.472656 3.878906 2.285156 6.128906 2.292969h168.574219l197.734375-197.734375v-169.199219c-.042969-2.058593-.867187-4.019531-2.304687-5.492187zm0 0"/><path d="m246.015625 443.734375 197.71875-197.71875v-.015625l-197.734375 197.734375zm0 0"/></g><path d="m246.03125 443.734375 197.703125-197.703125v-.015625l-197.71875 197.71875zm0 0" fill="#d4dff2"/><path d="m246.050781 443.734375 197.683594-197.683594v-.019531l-197.703125 197.703125zm0 0" fill="#d5e0f2"/><path d="m246.066406 443.734375 197.667969-197.667969v-.015625l-197.683594 197.683594zm0 0" fill="#d6e0f2"/><path d="m246.085938 443.734375 197.648437-197.648437v-.019532l-197.667969 197.667969zm0 0" fill="#d7e1f2"/><path d="m246.101562 443.734375 197.632813-197.632813v-.015624l-197.648437 197.648437zm0 0" fill="#d8e1f2"/><path d="m246.117188 443.734375 197.617187-197.617187v-.015626l-197.632813 197.632813zm0 0" fill="#d9e2f2"/><path d="m246.136719 443.734375 197.597656-197.597656v-.019531l-197.617187 197.617187zm0 0" fill="#dae2f2"/><path d="m246.152344 443.734375 197.582031-197.582031v-.015625l-197.597656 197.597656zm0 0" fill="#dbe3f2"/><path d="m246.167969 443.734375 197.566406-197.566406v-.015625l-197.582031 197.582031zm0 0" fill="#dce3f2"/><path d="m246.1875 443.734375 197.546875-197.546875v-.019531l-197.566406 197.566406zm0 0" fill="#dde4f2"/><path d="m246.203125 443.734375 197.53125-197.53125v-.015625l-197.546875 197.546875zm0 0" fill="#dee4f2"/><path d="m246.222656 443.734375 197.511719-197.511719v-.019531l-197.53125 197.53125zm0 0" fill="#dfe5f2"/><path d="m246.238281 443.734375 197.496094-197.496094v-.015625l-197.511719 197.511719zm0 0" fill="#e0e5f2"/><path d="m246.253906 443.734375 197.480469-197.480469v-.015625l-197.496094 197.496094zm0 0" fill="#e1e6f2"/><path d="m246.273438 443.734375 197.460937-197.460937v-.019532l-197.480469 197.480469zm0 0" fill="#e2e6f2"/><path d="m246.289062 443.734375 197.445313-197.445313v-.015624l-197.460937 197.460937zm0 0" fill="#e3e6f2"/><path d="m246.304688 443.734375 197.429687-197.429687v-.015626l-197.445313 197.445313zm0 0" fill="#e4e7f2"/><path d="m246.324219 443.734375 197.410156-197.410156v-.019531l-197.429687 197.429687zm0 0" fill="#e5e7f2"/><path d="m246.339844 443.734375 197.394531-197.394531v-.015625l-197.410156 197.410156zm0 0" fill="#e6e8f2"/><path d="m246.355469 443.734375 197.378906-197.378906v-.015625l-197.394531 197.394531zm0 0" fill="#e7e8f2"/><path d="m246.375 443.734375 197.359375-197.359375v-.019531l-197.378906 197.378906zm0 0" fill="#e8e9f2"/><path d="m246.382812 443.734375 197.351563-197.351563v-.007812l-197.359375 197.359375zm0 0" fill="#eae9f2"/><path d="m246.398438 443.734375 197.335937-197.335937v-.015626l-197.351563 197.351563zm0 0" fill="#ebeaf2"/><path d="m246.417969 443.734375 197.316406-197.316406v-.019531l-197.335937 197.335937zm0 0" fill="#eceaf2"/><path d="m246.433594 443.734375 197.300781-197.300781v-.015625l-197.316406 197.316406zm0 0" fill="#edebf2"/><path d="m246.453125 443.734375 197.28125-197.28125v-.019531l-197.300781 197.300781zm0 0" fill="#eeebf2"/><path d="m246.46875 443.734375 197.265625-197.265625v-.015625l-197.28125 197.28125zm0 0" fill="#efecf2"/><path d="m246.484375 443.734375 197.25-197.25v-.015625l-197.265625 197.265625zm0 0" fill="#f0ecf2"/><path d="m246.503906 443.734375 197.230469-197.230469v-.019531l-197.25 197.25zm0 0" fill="#f1ecf2"/><path d="m246.519531 443.734375 197.214844-197.214844v-.015625l-197.230469 197.230469zm0 0" fill="#f2edf2"/><path d="m246.535156 443.734375 197.199219-197.199219v-.015625l-197.214844 197.214844zm0 0" fill="#f3edf2"/><path d="m246.554688 443.734375 197.179687-197.179687v-.019532l-197.199219 197.199219zm0 0" fill="#f4eef2"/><path d="m246.570312 443.734375 197.164063-197.164063v-.015624l-197.179687 197.179687zm0 0" fill="#f5eef2"/><path d="m246.585938 443.734375 197.148437-197.148437v-.015626l-197.164063 197.164063zm0 0" fill="#f6eff2"/><path d="m246.605469 443.734375 197.128906-197.128906v-.019531l-197.148437 197.148437zm0 0" fill="#f7eff2"/><path d="m246.621094 443.734375 197.113281-197.113281v-.015625l-197.128906 197.128906zm0 0" fill="#f8f0f2"/><path d="m246.640625 443.734375 197.09375-197.09375v-.019531l-197.113281 197.113281zm0 0" fill="#f9f0f2"/><path d="m246.65625 443.734375 197.078125-197.078125v-.015625l-197.09375 197.09375zm0 0" fill="#faf1f2"/><path d="m246.671875 443.734375 197.0625-197.0625v-.015625l-197.078125 197.078125zm0 0" fill="#fbf1f2"/><path d="m246.691406 443.734375 197.042969-197.042969v-.019531l-197.0625 197.0625zm0 0" fill="#fcf2f2"/><path d="m246.707031 443.734375 197.027344-197.027344v-.015625l-197.042969 197.042969zm0 0" fill="#fdf2f2"/><path d="m246.722656 443.734375 197.011719-197.011719v-.015625l-197.027344 197.027344zm0 0" fill="#fef3f2"/><path d="m246.742188 443.734375 196.992187-196.992187v-.019532l-197.011719 197.011719zm0 0" fill="#fff3f2"/><path d="m327.457031 443.734375 116.277344-116.277344v-80.714843l-196.992187 196.992187zm0 0" fill="#fff3f2"/><path d="m327.476562 443.734375 116.257813-116.257813v-.019531l-116.277344 116.277344zm0 0" fill="#fff3f2"/><path d="m327.492188 443.734375 116.242187-116.242187v-.015626l-116.257813 116.257813zm0 0" fill="#fef3f2"/><path d="m327.507812 443.734375 116.226563-116.226563v-.015624l-116.242187 116.242187zm0 0" fill="#fdf2f2"/><path d="m327.527344 443.734375 116.207031-116.207031v-.019532l-116.226563 116.226563zm0 0" fill="#fcf2f2"/><path d="m327.542969 443.734375 116.191406-116.191406v-.015625l-116.207031 116.207031zm0 0" fill="#fbf1f2"/><path d="m327.558594 443.734375 116.175781-116.175781v-.015625l-116.191406 116.191406zm0 0" fill="#faf1f2"/><path d="m327.578125 443.734375 116.15625-116.15625v-.019531l-116.175781 116.175781zm0 0" fill="#f9f0f2"/><path d="m327.59375 443.734375 116.140625-116.140625v-.015625l-116.15625 116.15625zm0 0" fill="#f8f0f2"/><path d="m327.613281 443.734375 116.121094-116.121094v-.019531l-116.140625 116.140625zm0 0" fill="#f7eff2"/><path d="m327.628906 443.734375 116.105469-116.105469v-.015625l-116.121094 116.121094zm0 0" fill="#f6eff2"/><path d="m327.644531 443.734375 116.089844-116.089844v-.015625l-116.105469 116.105469zm0 0" fill="#f5eef2"/><path d="m327.664062 443.734375 116.070313-116.070313v-.019531l-116.089844 116.089844zm0 0" fill="#f4eef2"/><path d="m327.679688 443.734375 116.054687-116.054687v-.015626l-116.070313 116.070313zm0 0" fill="#f3edf2"/><path d="m327.695312 443.734375 116.039063-116.039063v-.015624l-116.054687 116.054687zm0 0" fill="#f2edf2"/><path d="m327.714844 443.734375 116.019531-116.019531v-.019532l-116.039063 116.039063zm0 0" fill="#f1ecf2"/><path d="m327.730469 443.734375 116.003906-116.003906v-.015625l-116.019531 116.019531zm0 0" fill="#f0ecf2"/><path d="m327.75 443.734375 115.984375-115.984375v-.019531l-116.003906 116.003906zm0 0" fill="#efecf2"/><path d="m327.765625 443.734375 115.96875-115.96875v-.015625l-115.984375 115.984375zm0 0" fill="#eeebf2"/><path d="m327.78125 443.734375 115.953125-115.953125v-.015625l-115.96875 115.96875zm0 0" fill="#edebf2"/><path d="m327.800781 443.734375 115.933594-115.933594v-.019531l-115.953125 115.953125zm0 0" fill="#eceaf2"/><path d="m327.816406 443.734375 115.917969-115.917969v-.015625l-115.933594 115.933594zm0 0" fill="#ebeaf2"/><path d="m327.832031 443.734375 115.902344-115.902344v-.015625l-115.917969 115.917969zm0 0" fill="#eae9f2"/><path d="m327.851562 443.734375 115.882813-115.882813v-.019531l-115.902344 115.902344zm0 0" fill="#e8e9f2"/><path d="m327.867188 443.734375 115.867187-115.867187v-.015626l-115.882813 115.882813zm0 0" fill="#e7e8f2"/><path d="m327.886719 443.734375 115.847656-115.847656v-.019531l-115.867187 115.867187zm0 0" fill="#e6e8f2"/><path d="m327.902344 443.734375 115.832031-115.832031v-.015625l-115.847656 115.847656zm0 0" fill="#e5e7f2"/><path d="m327.917969 443.734375 115.816406-115.816406v-.015625l-115.832031 115.832031zm0 0" fill="#e4e7f2"/><path d="m327.9375 443.734375 115.796875-115.796875v-.019531l-115.816406 115.816406zm0 0" fill="#e3e6f2"/><path d="m327.953125 443.734375 115.78125-115.78125v-.015625l-115.796875 115.796875zm0 0" fill="#e2e6f2"/><path d="m327.96875 443.734375 115.765625-115.773437v-.007813l-115.78125 115.78125zm0 0" fill="#e1e6f2"/><path d="m327.980469 443.734375 115.753906-115.753906v-.019531l-115.765625 115.773437zm0 0" fill="#e0e5f2"/><path d="m327.996094 443.734375 115.738281-115.738281v-.015625l-115.753906 115.753906zm0 0" fill="#dfe5f2"/><path d="m328.011719 443.734375 115.722656-115.722656v-.015625l-115.738281 115.738281zm0 0" fill="#dee4f2"/><path d="m328.03125 443.734375 115.703125-115.703125v-.019531l-115.722656 115.722656zm0 0" fill="#dde4f2"/><path d="m328.046875 443.734375 115.6875-115.6875v-.015625l-115.703125 115.703125zm0 0" fill="#dce3f2"/><path d="m328.0625 443.734375 115.671875-115.671875v-.015625l-115.6875 115.6875zm0 0" fill="#dbe3f2"/><path d="m328.082031 443.734375 115.652344-115.652344v-.019531l-115.671875 115.671875zm0 0" fill="#dae2f2"/><path d="m328.097656 443.734375 115.636719-115.636719v-.015625l-115.652344 115.652344zm0 0" fill="#d9e2f2"/><path d="m328.113281 443.734375 115.621094-115.621094v-.015625l-115.636719 115.636719zm0 0" fill="#d8e1f2"/><path d="m328.132812 443.734375 115.601563-115.601563v-.019531l-115.621094 115.621094zm0 0" fill="#d7e1f2"/><path d="m328.148438 443.734375 115.585937-115.585937v-.015626l-115.601563 115.601563zm0 0" fill="#d6e0f2"/><path d="m328.167969 443.734375 115.566406-115.566406v-.019531l-115.585937 115.585937zm0 0" fill="#d5e0f2"/><path d="m328.183594 443.734375 115.550781-115.550781v-.015625l-115.566406 115.566406zm0 0" fill="#d4dff2"/><path d="m328.199219 443.734375 115.535156-115.535156v-.015625l-115.550781 115.550781zm0 0" fill="#d3dff2"/><path d="m434.574219 443.734375c4.878906.152344 8.964843-3.660156 9.160156-8.535156v-106.996094l-115.53125 115.53125zm0 0" fill="#d3dff2"/><path d="m196.265625 110.933594h119.46875c9.425781 0 17.066406 7.640625 17.066406 17.066406v8.535156c0 9.425782-7.640625 17.066406-17.066406 17.066406h-119.46875c-9.425781 0-17.066406-7.640624-17.066406-17.066406v-8.535156c0-9.425781 7.640625-17.066406 17.066406-17.066406zm0 0" fill="#cad9fc"/><path d="m196.265625 110.933594h93.867187c9.425782 0 17.066407 7.640625 17.066407 17.066406v8.535156c0 9.425782-7.640625 17.066406-17.066407 17.066406h-93.867187c-9.425781 0-17.066406-7.640624-17.066406-17.066406v-8.535156c0-9.425781 7.640625-17.066406 17.066406-17.066406zm0 0" fill="#e8edfc"/><path d="m354.132812 401.066406h-195.582031c-12.65625-.019531-24.261719-7.035156-30.164062-18.230468-5.902344-11.195313-5.128907-24.734376 2.003906-35.1875l72.875-106.496094c1-1.425782 1.535156-3.125 1.535156-4.863282v-82.6875h102.398438v82.6875c0 1.738282.535156 3.4375 1.535156 4.863282l72.875 106.496094c7.054687 10.355468 7.878906 23.738281 2.148437 34.878906-5.730468 11.140625-17.097656 18.253906-29.625 18.539062zm0 0" fill="#cad9fc"/><path d="m347.242188 401.066406h-189.71875c-12.484376-.363281-23.777344-7.503906-29.464844-18.625s-4.863282-24.457031 2.152344-34.792968l70.6875-106.496094c.976562-1.433594 1.496093-3.128906 1.488281-4.863282v-74.15625h77.976562v82.6875c.035157 1.730469.550781 3.414063 1.488281 4.863282l70.6875 106.496094c9.484376 14.238281 7.238282 33.25-5.296874 44.886718zm0 0" fill="#e8edfc"/><path d="m353.449219 366.933594h-194.898438l70.398438-107.09375c1.566406-2.390625 4.226562-3.832032 7.082031-3.839844h39.851562c2.878907.003906 5.566407 1.445312 7.167969 3.839844zm0 0" fill="#cad9fc"/><path d="m327.851562 366.933594h-169.300781l70.398438-107.09375c1.566406-2.390625 4.226562-3.832032 7.082031-3.839844h14.25c2.882812.003906 5.570312 1.445312 7.167969 3.839844zm0 0" fill="#e8edfc"/><path d="m59.734375 443.734375v-375.46875c-.003906-9.050781 3.59375-17.734375 9.992187-24.136719 6.402344-6.402344 15.085938-10 24.140626-9.996094h-25.601563c-9.050781-.003906-17.734375 3.59375-24.136719 9.996094s-10 15.085938-9.996094 24.136719v375.46875c-.003906 9.050781 3.59375 17.734375 9.996094 24.136719s15.085938 10 24.136719 9.996094h25.601563c-9.054688.003906-17.738282-3.59375-24.140626-9.996094-6.398437-6.402344-9.996093-15.085938-9.992187-24.136719zm0 0" fill="#fff"/><path d="m443.734375 59.734375h-375.46875c-4.710937 0-8.53125 3.820313-8.53125 8.53125v375.46875c0 4.710937 3.820313 8.53125 8.53125 8.53125h375.46875c4.710937 0 8.53125-3.820313 8.53125-8.53125v-375.46875c0-4.710937-3.820313-8.53125-8.53125-8.53125zm-8.535156 375.464844h-358.398438v-358.398438h358.398438zm0 0" fill="#428dff"/><path d="m503.464844 85.332031c4.714844 0 8.535156-3.820312 8.535156-8.53125 0-4.714843-3.820312-8.535156-8.535156-8.535156h-17.066406c-.027344-23.550781-19.113282-42.636719-42.664063-42.664063v-17.066406c0-4.714844-3.820313-8.535156-8.535156-8.535156-4.710938 0-8.53125 3.820312-8.53125 8.535156v17.066406h-34.132813v-17.066406c0-4.714844-3.824218-8.535156-8.535156-8.535156s-8.535156 3.820312-8.535156 8.535156v17.066406h-34.132813v-17.066406c0-4.714844-3.820312-8.535156-8.53125-8.535156-4.714843 0-8.535156 3.820312-8.535156 8.535156v17.066406h-34.132813v-17.066406c0-4.714844-3.820312-8.535156-8.53125-8.535156-4.714843 0-8.535156 3.820312-8.535156 8.535156v17.066406h-34.132812v-17.066406c0-4.714844-3.820313-8.535156-8.535156-8.535156-4.710938 0-8.53125 3.820312-8.53125 8.535156v17.066406h-34.132813v-17.066406c0-4.714844-3.820313-8.535156-8.535156-8.535156-4.710938 0-8.53125 3.820312-8.53125 8.535156v17.066406h-34.132813v-17.066406c0-4.714844-3.824218-8.535156-8.535156-8.535156s-8.535156 3.820312-8.535156 8.535156v17.066406h-34.132813v-17.066406c0-4.714844-3.820312-8.535156-8.53125-8.535156-4.714843 0-8.535156 3.820312-8.535156 8.535156v17.066406c-23.550781.027344-42.636719 19.113282-42.664063 42.664063h-17.066406c-4.714844 0-8.535156 3.820313-8.535156 8.535156 0 4.710938 3.820312 8.53125 8.535156 8.53125h17.066406v34.132813h-17.066406c-4.714844 0-8.535156 3.824218-8.535156 8.535156s3.820312 8.535156 8.535156 8.535156h17.066406v34.132813h-17.066406c-4.714844 0-8.535156 3.820312-8.535156 8.53125 0 4.714843 3.820312 8.535156 8.535156 8.535156h17.066406v34.132813h-17.066406c-4.714844 0-8.535156 3.820312-8.535156 8.53125 0 4.714843 3.820312 8.535156 8.535156 8.535156h17.066406v34.132812h-17.066406c-4.714844 0-8.535156 3.820313-8.535156 8.535156 0 4.710938 3.820312 8.53125 8.535156 8.53125h17.066406v34.132813h-17.066406c-4.714844 0-8.535156 3.820313-8.535156 8.535156 0 4.710938 3.820312 8.53125 8.535156 8.53125h17.066406v34.132813h-17.066406c-4.714844 0-8.535156 3.824218-8.535156 8.535156s3.820312 8.535156 8.535156 8.535156h17.066406v34.132813h-17.066406c-4.714844 0-8.535156 3.820312-8.535156 8.53125 0 4.714843 3.820312 8.535156 8.535156 8.535156h17.066406c.027344 23.550781 19.113282 42.636719 42.664063 42.664063v17.066406c0 4.714844 3.820313 8.535156 8.535156 8.535156 4.710938 0 8.53125-3.820312 8.53125-8.535156v-17.066406h34.132813v17.066406c0 4.714844 3.824218 8.535156 8.535156 8.535156s8.535156-3.820312 8.535156-8.535156v-17.066406h34.132813v17.066406c0 4.714844 3.820312 8.535156 8.53125 8.535156 4.714843 0 8.535156-3.820312 8.535156-8.535156v-17.066406h34.132813v17.066406c0 4.714844 3.820312 8.535156 8.53125 8.535156 4.714843 0 8.535156-3.820312 8.535156-8.535156v-17.066406h34.132812v17.066406c0 4.714844 3.820313 8.535156 8.535156 8.535156 4.710938 0 8.53125-3.820312 8.53125-8.535156v-17.066406h34.132813v17.066406c0 4.714844 3.820313 8.535156 8.535156 8.535156 4.710938 0 8.53125-3.820312 8.53125-8.535156v-17.066406h34.132813v17.066406c0 4.714844 3.824218 8.535156 8.535156 8.535156s8.535156-3.820312 8.535156-8.535156v-17.066406h34.132813v17.066406c0 4.714844 3.820312 8.535156 8.53125 8.535156 4.714843 0 8.535156-3.820312 8.535156-8.535156v-17.066406c23.550781-.027344 42.636719-19.113282 42.664063-42.664063h17.066406c4.714844 0 8.535156-3.820313 8.535156-8.535156 0-4.710938-3.820312-8.53125-8.535156-8.53125h-17.066406v-34.132813h17.066406c4.714844 0 8.535156-3.824218 8.535156-8.535156s-3.820312-8.535156-8.535156-8.535156h-17.066406v-34.132813h17.066406c4.714844 0 8.535156-3.820312 8.535156-8.53125 0-4.714843-3.820312-8.535156-8.535156-8.535156h-17.066406v-34.132813h17.066406c4.714844 0 8.535156-3.820312 8.535156-8.53125 0-4.714843-3.820312-8.535156-8.535156-8.535156h-17.066406v-34.132812h17.066406c4.714844 0 8.535156-3.820313 8.535156-8.535156 0-4.710938-3.820312-8.53125-8.535156-8.53125h-17.066406v-34.132813h17.066406c4.714844 0 8.535156-3.820313 8.535156-8.535156 0-4.710938-3.820312-8.53125-8.535156-8.53125h-17.066406v-34.132813h17.066406c4.714844 0 8.535156-3.824218 8.535156-8.535156s-3.820312-8.535156-8.535156-8.535156h-17.066406v-34.132813zm-34.132813 358.402344c-.015625 14.132813-11.464843 25.582031-25.597656 25.597656h-375.46875c-14.132813-.015625-25.582031-11.464843-25.597656-25.597656v-375.46875c.015625-14.132813 11.464843-25.582031 25.597656-25.597656h375.46875c14.132813.015625 25.582031 11.464843 25.597656 25.597656zm0 0" fill="#428dff"/><path d="m102.398438 110.933594h8.535156c4.710937 0 8.53125-3.820313 8.53125-8.535156 0-4.710938-3.820313-8.53125-8.53125-8.53125h-8.535156c-4.710938 0-8.53125 3.820312-8.53125 8.53125 0 4.714843 3.820312 8.535156 8.53125 8.535156zm0 0" fill="#428dff"/><path d="m145.066406 110.933594h8.535156c4.710938 0 8.53125-3.820313 8.53125-8.535156 0-4.710938-3.820312-8.53125-8.53125-8.53125h-8.535156c-4.710937 0-8.53125 3.820312-8.53125 8.53125 0 4.714843 3.820313 8.535156 8.53125 8.535156zm0 0" fill="#428dff"/><path d="m196.257812 162.132812v74.15625l-72.890624 106.554688c-8.9375 13.058594-9.910157 29.996094-2.527344 43.992188 7.382812 14 21.910156 22.761718 37.734375 22.765624h194.851562c15.824219-.003906 30.351563-8.765624 37.734375-22.765624 7.382813-13.996094 6.410156-30.933594-2.527344-43.992188l-72.890624-106.554688v-74.15625c14.121093-.027343 25.558593-11.476562 25.574218-25.597656v-8.535156c-.015625-14.132812-11.46875-25.585938-25.601562-25.601562h-119.449219c-14.132813.015624-25.582031 11.46875-25.597656 25.601562v8.535156c.015625 14.128906 11.460937 25.578125 25.589843 25.597656zm178.292969 190.34375c5.363281 7.835938 5.945313 18 1.515625 26.398438-4.429687 8.398438-13.144531 13.65625-22.640625 13.660156h-194.851562c-9.496094-.003906-18.210938-5.261718-22.640625-13.660156-4.429688-8.398438-3.847656-18.5625 1.515625-26.398438l72.882812-106.527343c1.957031-2.839844 3-6.210938 2.992188-9.660157v-74.15625h85.351562v74.15625c-.007812 3.4375 1.03125 6.800782 2.984375 9.632813zm-186.816406-224.476562c0-4.710938 3.820313-8.53125 8.53125-8.535156h119.449219c4.714844.003906 8.53125 3.824218 8.535156 8.535156v8.535156c-.003906 4.710938-3.820312 8.527344-8.535156 8.53125h-119.449219c-4.710937-.003906-8.53125-3.820312-8.53125-8.53125zm0 0" fill="#428dff"/><path d="m275.910156 247.464844-39.835937.019531c-5.746094-.007813-11.113281 2.882813-14.265625 7.691406l-70.367188 107.074219c-1.71875 2.621094-1.863281 5.976562-.375 8.734375 1.488282 2.761719 4.371094 4.480469 7.507813 4.480469h194.851562c3.136719 0 6.019531-1.71875 7.507813-4.480469 1.488281-2.757813 1.34375-6.113281-.375-8.734375l-70.382813-107.082031c-3.148437-4.816407-8.515625-7.710938-14.265625-7.703125zm-101.519531 110.933594 61.683594-93.847657 39.835937-.015625 61.695313 93.863282zm0 0" fill="#428dff"/><path d="m229.71875 329.558594c-.1875-.542969-.445312-1.0625-.769531-1.539063-.3125-.445312-.65625-.875-1.023438-1.277343-.816406-.773438-1.773437-1.378907-2.816406-1.792969-3.183594-1.296875-6.828125-.59375-9.300781 1.792969-3.300782 3.363281-3.300782 8.75 0 12.117187 3.363281 3.300781 8.75 3.300781 12.117187 0 .367188-.40625.707031-.832031 1.023438-1.28125.324219-.476563.582031-.992187.769531-1.535156.242188-.484375.414062-1.003907.511719-1.535157.226562-1.128906.226562-2.289062 0-3.414062-.097657-.535156-.269531-1.050781-.511719-1.535156zm0 0" fill="#428dff"/><path d="m255.316406 303.957031c-.1875-.542969-.445312-1.058593-.765625-1.535156-.316406-.449219-.65625-.875-1.027343-1.28125-.816407-.769531-1.769532-1.378906-2.8125-1.792969-3.183594-1.292968-6.832032-.59375-9.304688 1.792969-3.296875 3.367187-3.296875 8.753906 0 12.117187 3.367188 3.300782 8.753906 3.300782 12.117188 0 .367187-.40625.710937-.832031 1.027343-1.277343.320313-.476563.578125-.992188.765625-1.539063.246094-.484375.417969-1 .511719-1.535156.230469-1.125.230469-2.285156 0-3.414062-.09375-.53125-.265625-1.050782-.511719-1.535157zm0 0" fill="#428dff"/><path d="m267.007812 326.742188c-3.300781 3.363281-3.300781 8.75 0 12.117187 3.367188 3.300781 8.753907 3.300781 12.117188 0 .367188-.40625.707031-.832031 1.023438-1.28125.324218-.476563.582031-.992187.769531-1.535156.242187-.484375.417969-1.003907.511719-1.535157.226562-1.128906.226562-2.289062 0-3.414062-.09375-.535156-.269532-1.050781-.511719-1.535156-.1875-.542969-.445313-1.0625-.769531-1.539063-.3125-.445312-.65625-.875-1.023438-1.277343-.816406-.773438-1.773438-1.378907-2.816406-1.792969-3.179688-1.296875-6.828125-.59375-9.300782 1.792969zm0 0" fill="#428dff"/><path d="m238.933594 196.265625c4.710937 0 8.53125-3.820313 8.53125-8.53125v-8.535156c0-4.710938-3.820313-8.53125-8.53125-8.53125-4.714844 0-8.535156 3.820312-8.535156 8.53125v8.535156c0 4.710937 3.820312 8.53125 8.535156 8.53125zm0 0" fill="#428dff"/><path d="m238.933594 230.398438c2.855468.03125 5.53125-1.382813 7.113281-3.761719 1.585937-2.375 1.863281-5.386719.738281-8.011719-.433594-1.035156-1.039062-1.988281-1.792968-2.816406-.832032-.753906-1.78125-1.359375-2.816407-1.792969-2.078125-.859375-4.410156-.859375-6.484375 0-1.046875.414063-2 1.019531-2.816406 1.792969-1.5625 1.632812-2.445312 3.796875-2.476562 6.058594-.023438 2.269531.871093 4.453124 2.476562 6.058593s3.789062 2.496094 6.058594 2.472657zm0 0" fill="#428dff"/><path d="m102.398438 145.066406h42.667968c4.714844 0 8.535156-3.820312 8.535156-8.53125 0-4.714844-3.820312-8.535156-8.535156-8.535156h-42.667968c-4.710938 0-8.53125 3.820312-8.53125 8.535156 0 4.710938 3.820312 8.53125 8.53125 8.53125zm0 0" fill="#428dff"/><path d="m401.066406 110.933594h8.535156c4.710938 0 8.53125-3.820313 8.53125-8.535156 0-4.710938-3.820312-8.53125-8.53125-8.53125h-8.535156c-4.710937 0-8.53125 3.820312-8.53125 8.53125 0 4.714843 3.820313 8.535156 8.53125 8.535156zm0 0" fill="#428dff"/><path d="m358.398438 110.933594h8.535156c4.710937 0 8.53125-3.820313 8.53125-8.535156 0-4.710938-3.820313-8.53125-8.53125-8.53125h-8.535156c-4.710938 0-8.53125 3.820312-8.53125 8.53125 0 4.714843 3.820312 8.535156 8.53125 8.535156zm0 0" fill="#428dff"/><path d="m409.601562 128h-42.667968c-4.714844 0-8.535156 3.820312-8.535156 8.535156 0 4.710938 3.820312 8.53125 8.535156 8.53125h42.667968c4.710938 0 8.53125-3.820312 8.53125-8.53125 0-4.714844-3.820312-8.535156-8.53125-8.535156zm0 0" fill="#428dff"/></svg>