<?xml version="1.0"?>
<svg xmlns="http://www.w3.org/2000/svg" id="Layer_3" enable-background="new 0 0 64 64" height="512px" viewBox="0 0 64 64" width="512px"><g transform="matrix(0.860058, 0, 0, 0.860058, 4.47813, 4.47813)"><g><path d="m59 14v38.429l-4-7.429v-31z" fill="#758190" data-original="#758190" class=""/><path d="m5 14v38.429l4-7.429v-31z" fill="#758190" data-original="#758190" class=""/><path d="m9 14h46v6h-46z" fill="#d5cec2" data-original="#D5CEC2"/><path d="m9 20h46v25h-46z" fill="#e8eff4" data-original="#E8EFF4"/><path d="m55 45h-46l-7 13h60z" fill="#8892a0" data-original="#8892A0" class=""/><circle cx="24" cy="34" fill="#758190" r="7" data-original="#758190" class=""/><circle cx="23" cy="37" fill="#a8b0bc" r="7" data-original="#A8B0BC"/><circle cx="40" cy="34" fill="#758190" r="7" data-original="#758190" class=""/><circle cx="41" cy="37" fill="#a8b0bc" r="7" data-original="#A8B0BC"/><circle cx="22" cy="41" fill="#c1c8d1" r="7" data-original="#C1C8D1"/><circle cx="42" cy="41" fill="#c1c8d1" r="7" data-original="#C1C8D1"/><g fill="#758190"><circle cx="22" cy="41" r="3" data-original="#758190" class=""/><circle cx="42" cy="41" r="3" data-original="#758190" class=""/><path d="m59 14h-54v-10c0-1.105.895-2 2-2h50c1.105 0 2 .895 2 2z" data-original="#758190" class=""/></g><circle cx="42" cy="8" fill="#243242" r="3" data-original="#243242"/><circle cx="22" cy="8" fill="#243242" r="3" data-original="#243242"/><path d="m53 11h-2c-1.105 0-2-.895-2-2 0-1.105.895-2 2-2h2c1.105 0 2 .895 2 2 0 1.105-.895 2-2 2z" fill="#e7e4dd" data-original="#E7E4DD"/><path d="m13 11h-2c-1.105 0-2-.895-2-2 0-1.105.895-2 2-2h2c1.105 0 2 .895 2 2 0 1.105-.895 2-2 2z" fill="#e7e4dd" data-original="#E7E4DD"/><path d="m21.292 7.292 1.415 1.415 1.993-1.993c-.296-.62-.795-1.118-1.415-1.414z" fill="#f7d881" data-original="#F7D881"/><path d="m39.3 6.714 1.992 1.992 1.415-1.415-1.993-1.991c-.619.296-1.118.795-1.414 1.414z" fill="#f7d881" data-original="#F7D881"/><path d="m52.967 40.838.02-.003-2.774-16.643c-.213-1.271-1.302-2.192-2.589-2.192-1.447 0-2.624 1.177-2.624 2.624v1.376h2v-1.376c0-.345.279-.624.624-.624.307 0 .565.219.616.521l2.58 15.478h-37.64l2.579-15.478c.051-.302.31-.521.616-.521.344 0 .624.28.624.625v1.375h2v-1.375c0-1.447-1.177-2.625-2.624-2.625-1.288 0-2.376.922-2.589 2.193l-2.774 16.642.019.003c-.008.054-.031.104-.031.161v11.999c0 .553.447 1 1 1h40c.553 0 1-.447 1-1v-11.999c-.001-.057-.024-.106-.033-.161zm-31.968 1.161h6.001v4h-6.001zm-1.999 4h-6v-4h6zm10-4h6v4h-6zm-2 5.999v4h-6.001v-4zm2 0h6v4h-6zm8 0h6v4h-6zm0-1.999v-4h6v4zm8-4h6v4h-6zm-32 5.999h6v4h-6zm32 4v-4h6v4z" fill="#243242" data-original="#243242"/><path d="m2 58v2c0 1.105.895 2 2 2h56c1.105 0 2-.895 2-2v-2" fill="#758190" data-original="#758190" class=""/><g><path d="m12 16h4v2h-4z" fill="#e47c6e" data-original="#E47C6E" class="active-path"/></g><g><path d="m48 16h4v2h-4z" fill="#e47c6e" data-original="#E47C6E" class="active-path"/></g><path d="m29 14v-5c0-1.657 1.343-3 3-3 1.657 0 3 1.343 3 3v5" fill="#f7d881" data-original="#F7D881"/><g><path d="m31 9h2v2h-2z" fill="#243242" data-original="#243242"/></g></g></g> </svg>
