<?xml version="1.0"?>
<svg xmlns="http://www.w3.org/2000/svg" xmlns:xlink="http://www.w3.org/1999/xlink" version="1.1" id="Capa_1" x="0px" y="0px" viewBox="0 0 464 464" style="enable-background:new 0 0 464 464;" xml:space="preserve" width="512px" height="512px" class=""><g transform="matrix(0.860058, 0, 0, 0.860058, 32.4664, 32.4664)"><path style="fill:#238892;" d="M0,304h464v32H0V304z" data-original="#238892" class=""/><path style="fill:#87CEE9;" d="M448,304H16c0-83.947,68.053-152,152-152h248L448,304z" data-original="#87CEE9" class=""/><path style="fill:#AABECE;" d="M368,56H208c-17.673,0-32,14.327-32,32v64h32V88h160v64h32V88C400,70.327,385.673,56,368,56z" data-original="#AABECE"/><g>
	<circle style="fill:#F4F4E6;" cx="336" cy="256" r="16" data-original="#F4F4E6"/>
	<circle style="fill:#F4F4E6;" cx="272" cy="256" r="16" data-original="#F4F4E6"/>
	<circle style="fill:#F4F4E6;" cx="208" cy="256" r="16" data-original="#F4F4E6"/>
</g><g>
	<path style="fill:#FDBD40" d="M248,120h80v32h-80V120z" data-original="#FDBD40" class="active-path" data-old_color="#FDBD40"/>
	<path style="fill:#FDBD40" d="M160,408c-4.418,0-8-3.582-8-8c0-13.255,10.745-24,24-24c4.418,0,8-3.582,8-8s3.582-8,8-8   s8,3.582,8,8c0,13.255-10.745,24-24,24c-4.418,0-8,3.582-8,8S164.418,408,160,408z" data-original="#FDBD40" class="active-path" data-old_color="#FDBD40"/>
	<path style="fill:#FDBD40" d="M216,408c-4.418,0-8-3.582-8-8c0-13.255,10.745-24,24-24c4.418,0,8-3.582,8-8s3.582-8,8-8   s8,3.582,8,8c0,13.255-10.745,24-24,24c-4.418,0-8,3.582-8,8S220.418,408,216,408z" data-original="#FDBD40" class="active-path" data-old_color="#FDBD40"/>
	<path style="fill:#FDBD40" d="M272,408c-4.418,0-8-3.582-8-8c0-13.255,10.745-24,24-24c4.418,0,8-3.582,8-8s3.582-8,8-8   s8,3.582,8,8c0,13.255-10.745,24-24,24c-4.418,0-8,3.582-8,8S276.418,408,272,408z" data-original="#FDBD40" class="active-path" data-old_color="#FDBD40"/>
</g></g> </svg>
