<?xml version="1.0"?>
<svg xmlns="http://www.w3.org/2000/svg" id="Layer_1" enable-background="new 0 0 512 512" height="512px" viewBox="0 0 512 512" width="512px"><g transform="matrix(0.860058, 0, 0, 0.860058, 35.825, 35.825)"><g><path d="m337.175 447.42-10 58.35c-.61 3.6-3.74 6.23-7.39 6.23h-126.42c-3.65 0-6.78-2.63-7.39-6.23l-10-58.35c-.38-2.18.23-4.42 1.66-6.11 1.42-1.69 3.52-2.66 5.73-2.66h146.42c2.21 0 4.31.97 5.73 2.66 1.43 1.69 2.04 3.93 1.66 6.11z" fill="#bfd5dd" data-original="#BFD5DD"/><path d="m337.175 447.42-10 58.35c-.61 3.6-3.74 6.23-7.39 6.23h-31.94c3.65 0 6.77-2.63 7.39-6.23l10-58.35c.37-2.18-.23-4.42-1.66-6.11-1.42-1.69-3.52-2.66-5.73-2.66h31.94c2.21 0 4.31.97 5.73 2.66 1.43 1.69 2.04 3.93 1.66 6.11z" fill="#9aaeb7" data-original="#9AAEB7"/><path d="m401.44 207.84c0 38.26-14.77 74.36-41.58 101.64-8.45 8.59-13.04 20.01-12.92 32.13.02 2.01-.77 3.93-2.18 5.36-1.41 1.42-3.32 2.21-5.32 2.21h-.01l-29.19-.05-137.24-.23c-2 0-3.91-.8-5.32-2.22-1.4-1.43-2.18-3.35-2.16-5.35.11-12.14-4.48-23.6-12.93-32.27-26.55-27.23-41.18-63.18-41.18-101.22 0-38.81 15.31-75.35 43.1-102.88 23.86-23.62 54.27-37.98 86.96-41.36 5.39-.55 10.86-.81 16.36-.76 38.44.36 74.52 15.6 101.59 42.92 27.1 27.34 42.02 63.59 42.02 102.08z" fill="#ffeb31" data-original="#FFEB31"/><path d="m401.44 207.84c0 38.26-14.77 74.36-41.58 101.64-8.45 8.59-13.04 20.01-12.92 32.13.02 2.01-.77 3.93-2.18 5.36-1.41 1.42-3.32 2.21-5.32 2.21h-.01l-29.19-.05c1.71-.18 3.3-.93 4.52-2.16 1.41-1.43 2.2-3.35 2.18-5.36-.12-12.12 4.47-23.54 12.92-32.13 26.81-27.28 41.58-63.38 41.58-101.64 0-38.49-14.92-74.74-42.02-102.08-23.84-24.06-54.67-38.75-87.95-42.16 5.39-.55 10.86-.81 16.36-.76 38.44.36 74.52 15.6 101.59 42.92 27.1 27.34 42.02 63.59 42.02 102.08z" fill="#ffce00" data-original="#FFCE00"/><g><path d="m311.471 168.265c-15.048 0-27.291 12.243-27.291 27.291v12.082h-55.209v-12.291c0-15.048-12.243-27.291-27.291-27.291s-27.291 12.243-27.291 27.291 12.243 27.291 27.291 27.291h12.291v126.542h15v-126.542h55.209v126.542h15v-126.542h12.223c15.086 0 27.359-12.149 27.359-27.082-.001-15.048-12.244-27.291-27.291-27.291zm-97.5 39.373h-12.291c-6.777 0-12.291-5.514-12.291-12.291s5.514-12.291 12.291-12.291 12.291 5.514 12.291 12.291zm97.431 0h-12.222v-12.082c0-6.777 5.514-12.291 12.291-12.291s12.291 5.514 12.291 12.291c-.001 6.662-5.545 12.082-12.36 12.082z" fill="#fff" data-original="#FFF"/></g><path d="m364 356.26c0 5.15-2.09 9.81-5.46 13.19-3.38 3.37-8.04 5.46-13.19 5.46h-178.26c-10.31 0-18.66-8.35-18.66-18.65 0-5.16 2.09-9.82 5.46-13.2 3.38-3.37 8.05-5.46 13.2-5.46h178.26c10.3 0 18.65 8.35 18.65 18.66z" fill="#e5f5f9" data-original="#E5F5F9" class="active-path"/><path d="m364.36 393.57c0 5.15-2.09 9.81-5.47 13.19-3.37 3.37-8.04 5.46-13.19 5.46h-178.26c-10.3 0-18.65-8.35-18.65-18.65 0-5.15 2.09-9.81 5.46-13.19 3.38-3.38 8.04-5.47 13.19-5.47h178.26c10.3 0 18.66 8.36 18.66 18.66z" fill="#bfd5dd" data-original="#BFD5DD"/><path d="m364.36 430.88c0 5.15-2.09 9.81-5.47 13.19-3.37 3.37-8.04 5.46-13.19 5.46h-178.26c-10.3 0-18.65-8.35-18.65-18.65 0-5.15 2.09-9.82 5.46-13.19 3.38-3.38 8.04-5.47 13.19-5.47h178.26c10.3 0 18.66 8.36 18.66 18.66z" fill="#e5f5f9" data-original="#E5F5F9" class="active-path"/><path d="m364 356.26c0 5.15-2.09 9.81-5.46 13.19-3.38 3.37-8.04 5.46-13.19 5.46h-40.82c5.15 0 9.82-2.09 13.2-5.46 3.37-3.38 5.46-8.04 5.46-13.19 0-10.31-8.35-18.66-18.66-18.66h40.82c10.3 0 18.65 8.35 18.65 18.66z" fill="#bfd5dd" data-original="#BFD5DD"/><path d="m364.36 393.57c0 5.15-2.09 9.81-5.47 13.19-3.37 3.37-8.04 5.46-13.19 5.46h-40.81c5.15 0 9.81-2.09 13.19-5.46 3.38-3.38 5.47-8.04 5.47-13.19 0-10.3-8.36-18.66-18.66-18.66h40.81c10.3 0 18.66 8.36 18.66 18.66z" fill="#9aaeb7" data-original="#9AAEB7"/><path d="m364.36 430.88c0 5.15-2.09 9.81-5.47 13.19-3.37 3.37-8.04 5.46-13.19 5.46h-40.81c5.15 0 9.81-2.09 13.19-5.46 3.38-3.38 5.47-8.04 5.47-13.19 0-10.3-8.36-18.66-18.66-18.66h40.81c10.3 0 18.66 8.36 18.66 18.66z" fill="#bfd5dd" data-original="#BFD5DD"/><g fill="#ffce00"><path d="m256.56 0c-4.142 0-7.5 3.358-7.5 7.5v33.148c0 4.142 3.358 7.5 7.5 7.5s7.5-3.358 7.5-7.5v-33.148c.001-4.142-3.358-7.5-7.5-7.5z" data-original="#FFCE00"/><path d="m89.063 200.34h-33.149c-4.142 0-7.5 3.358-7.5 7.5s3.358 7.5 7.5 7.5h33.149c4.142 0 7.5-3.358 7.5-7.5s-3.358-7.5-7.5-7.5z" data-original="#FFCE00"/><path d="m456.086 200.34h-33.148c-4.143 0-7.5 3.358-7.5 7.5s3.357 7.5 7.5 7.5h33.148c4.143 0 7.5-3.358 7.5-7.5s-3.357-7.5-7.5-7.5z" data-original="#FFCE00"/><path d="m132.654 320.58-23.439 23.439c-2.929 2.929-2.929 7.678 0 10.606 1.464 1.464 3.384 2.197 5.303 2.197s3.839-.732 5.303-2.197l23.439-23.439c2.929-2.929 2.929-7.678 0-10.606-2.928-2.929-7.677-2.929-10.606 0z" data-original="#FFCE00"/><path d="m374.042 97.298c1.919 0 3.839-.732 5.303-2.197l23.44-23.439c2.93-2.929 2.93-7.677.001-10.606s-7.678-2.929-10.606 0l-23.44 23.439c-2.93 2.929-2.93 7.677-.001 10.606 1.464 1.465 3.383 2.197 5.303 2.197z" data-original="#FFCE00"/><path d="m120.381 61.055c-2.929-2.929-7.678-2.929-10.606 0-2.929 2.929-2.929 7.678 0 10.606l23.439 23.439c1.464 1.464 3.384 2.197 5.303 2.197s3.839-.732 5.303-2.197c2.929-2.929 2.929-7.678 0-10.606z" data-original="#FFCE00"/><path d="m379.906 320.58c-2.93-2.929-7.678-2.929-10.607 0s-2.929 7.678 0 10.606l23.439 23.439c1.465 1.464 3.385 2.197 5.304 2.197s3.839-.732 5.304-2.197c2.929-2.929 2.929-7.678 0-10.606z" data-original="#FFCE00"/></g></g></g> </svg>
