<svg height="512" viewBox="0 0 512 512" width="512" xmlns="http://www.w3.org/2000/svg"><g id="filled_outline" data-name="filled outline"><path d="m56 184h400v248h-400z" fill="#eaeae8"/><path d="m24 136h464v48h-464z" fill="#eaeae8"/><path d="m456 232 23.155-11.578a16 16 0 0 0 8.845-14.311v-22.111h-32z" fill="#a8a8a8"/><path d="m56 232-23.155-11.578a16 16 0 0 1 -8.845-14.311v-22.111h32z" fill="#a8a8a8"/><path d="m456 80a191.2 191.2 0 0 0 -135.2-56h-129.6a191.2 191.2 0 0 0 -135.2 56l-18.733 9.367a24 24 0 0 0 -13.267 21.466v25.167h464v-25.167a24 24 0 0 0 -13.267-21.466zm-40 24h-320v-16a146.027 146.027 0 0 1 91.225-32h137.55a146.027 146.027 0 0 1 91.225 32z" fill="#cbcbcb"/><path d="m216 80h80v24h-80z" fill="#eaeae8"/><g fill="#a8a8a8"><path d="m56 432h400a0 0 0 0 1 0 0v18a14 14 0 0 1 -14 14h-372a14 14 0 0 1 -14-14v-18a0 0 0 0 1 0 0z"/><path d="m72 464h32v24h-32z"/><path d="m408 464h32v24h-32z"/></g><path d="m88 344a8 8 0 0 1 -8-8v-8a8 8 0 0 1 16 0v8a8 8 0 0 1 -8 8z" fill="#fbfdff"/><path d="m88 408a8 8 0 0 1 -8-8v-32a8 8 0 0 1 16 0v32a8 8 0 0 1 -8 8z" fill="#fbfdff"/><path d="m192 184h128a0 0 0 0 1 0 0v128a64 64 0 0 1 -64 64 64 64 0 0 1 -64-64v-128a0 0 0 0 1 0 0z" fill="#a8a8a8"/><circle cx="256" cy="240" fill="#6ee7f5" r="24"/><circle cx="256" cy="320" fill="#6ee7f5" r="24"/><path d="m56 184h136v16h-136z" fill="#cbcbcb"/><path d="m320 184h136v16h-136z" fill="#cbcbcb"/><path d="m421 81.753a154.585 154.585 0 0 0 -96.225-33.753h-137.55a154.585 154.585 0 0 0 -96.225 33.753 8 8 0 0 0 -3 6.247v16a8 8 0 0 0 8 8h320a8 8 0 0 0 8-8v-16a8 8 0 0 0 -3-6.247zm-197 14.247v-8h64v8zm184 0h-104v-16a8 8 0 0 0 -8-8h-80a8 8 0 0 0 -8 8v16h-104v-4.087a138.57 138.57 0 0 1 83.225-27.913h137.55a138.57 138.57 0 0 1 83.225 27.913z"/><path d="m478.312 82.211-17.585-8.792a199.2 199.2 0 0 0 -139.927-57.419h-129.6a199.2 199.2 0 0 0 -139.927 57.419l-17.585 8.792a31.827 31.827 0 0 0 -17.688 28.622v95.278a23.87 23.87 0 0 0 13.267 21.467l18.733 9.366v213.056a22.033 22.033 0 0 0 16 21.161v16.839a8 8 0 0 0 8 8h32a8 8 0 0 0 8-8v-16h288v16a8 8 0 0 0 8 8h32a8 8 0 0 0 8-8v-16.839a22.033 22.033 0 0 0 16-21.161v-213.056l18.733-9.366a23.87 23.87 0 0 0 13.267-21.467v-95.278a31.827 31.827 0 0 0 -17.688-28.622zm-30.312 149.789v192h-384v-232h120v120a72 72 0 0 0 144 0v-120h120zm-248-40h112v120a56 56 0 0 1 -112 0zm-168-16v-32h448v32zm0-65.167a15.912 15.912 0 0 1 8.845-14.311l18.733-9.367a7.986 7.986 0 0 0 2.079-1.5 182 182 0 0 1 129.543-53.655h129.6a182 182 0 0 1 129.543 53.657 7.986 7.986 0 0 0 2.079 1.5l18.733 9.367a15.912 15.912 0 0 1 8.845 14.309v17.167h-448zm4.423 102.434a7.956 7.956 0 0 1 -4.423-7.156v-14.111h16v27.056zm59.577 266.733h-16v-8h16zm336 0h-16v-8h16zm16-30a6.006 6.006 0 0 1 -6 6h-372a6.006 6.006 0 0 1 -6-6v-10h384zm32-243.889a7.956 7.956 0 0 1 -4.423 7.156l-11.577 5.789v-27.056h16z"/><path d="m88 320a8 8 0 0 0 -8 8v8a8 8 0 0 0 16 0v-8a8 8 0 0 0 -8-8z"/><path d="m88 360a8 8 0 0 0 -8 8v32a8 8 0 0 0 16 0v-32a8 8 0 0 0 -8-8z"/><path d="m256 272a32 32 0 1 0 -32-32 32.036 32.036 0 0 0 32 32zm0-48a16 16 0 1 1 -16 16 16.019 16.019 0 0 1 16-16z"/><path d="m256 352a32 32 0 1 0 -32-32 32.036 32.036 0 0 0 32 32zm0-48a16 16 0 1 1 -16 16 16.019 16.019 0 0 1 16-16z"/></g></svg>