<?xml version="1.0"?>
<svg xmlns="http://www.w3.org/2000/svg" xmlns:xlink="http://www.w3.org/1999/xlink" version="1.1" id="Capa_1" x="0px" y="0px" viewBox="0 0 512 512" style="enable-background:new 0 0 512 512;" xml:space="preserve" width="512px" height="512px" class=""><g transform="matrix(0.860058, 0, 0, 0.860058, 35.825, 35.825)"><path style="fill:#4398D1;" d="M75.034,194.207h317.793c29.255,0,52.966,23.711,52.966,52.966V476.69l0,0H22.069l0,0V247.172  C22.069,217.918,45.78,194.207,75.034,194.207z" data-original="#4398D1"/><path style="fill:#3E8CC7;" d="M22.069,461.506v15.183h423.724V247.172c0-8.783-2.18-17.426-6.356-25.159  C357.517,379.586,113.699,442.968,22.069,461.506z" data-original="#3E8CC7"/><g>
	<path style="fill:#1C4878;" d="M48.552,476.69h35.31l0,0v17.655c0,9.754-7.901,17.655-17.655,17.655l0,0   c-9.754,0-17.655-7.901-17.655-17.655V476.69L48.552,476.69z" data-original="#1C4878"/>
	<path style="fill:#1C4878;" d="M384,476.69h35.31l0,0v17.655c0,9.754-7.901,17.655-17.655,17.655l0,0   c-9.754,0-17.655-7.901-17.655-17.655V476.69L384,476.69z" data-original="#1C4878"/>
</g><path style="fill:#DE4C3C;" d="M445.793,264.828h26.483c9.754,0,17.655,7.901,17.655,17.655l0,0c0,9.754-7.901,17.655-17.655,17.655  h-26.483l0,0V264.828L445.793,264.828z" data-original="#DE4C3C" class=""/><path style="fill:#FDB62F;" d="M92.69,35.31L92.69,35.31c0,19.5,15.81,35.31,35.31,35.31l0,0v123.586h211.862V70.621l0,0  c19.5,0,35.31-15.81,35.31-35.31l0,0c0-19.5-15.81-35.31-35.31-35.31H128C108.5,0,92.69,15.81,92.69,35.31z" data-original="#FDB62F"/><g>
	
		<rect x="154.129" y="39.775" transform="matrix(-0.7071 0.7071 -0.7071 -0.7071 350.7518 -48.0815)" style="fill:#FA962A;" width="62.41" height="17.655" data-original="#FA962A" class=""/>
	
		<rect x="141.308" y="79.436" transform="matrix(-0.7071 0.7071 -0.7071 -0.7071 431.5033 -2.2078)" style="fill:#FA962A;" width="149.803" height="17.655" data-original="#FA962A" class=""/>
	
		<rect x="187.323" y="110.375" transform="matrix(-0.7071 0.7071 -0.7071 -0.7071 521.3104 22.4704)" style="fill:#FA962A;" width="137.356" height="17.655" data-original="#FA962A" class=""/>
	
		<rect x="270.697" y="141.255" transform="matrix(-0.7071 0.7071 -0.7071 -0.7071 610.8795 47.1308)" style="fill:#FA962A;" width="49.964" height="17.655" data-original="#FA962A" class=""/>
</g><g>
	<path style="fill:#E5E5E5" d="M66.207,264.828H48.552v-17.655c0-14.627,11.855-26.483,26.483-26.483v17.655   c-4.873,0-8.828,3.955-8.828,8.828V264.828z" data-original="#E5E5E5" class="active-path" data-old_color="#E5E5E5"/>
	<rect x="48.552" y="282.483" style="fill:#E5E5E5" width="17.655" height="97.103" data-original="#E5E5E5" class="active-path" data-old_color="#E5E5E5"/>
</g><rect x="22.069" y="414.897" style="fill:#1C4878;" width="423.724" height="17.655" data-original="#1C4878"/></g> </svg>
