<?xml version="1.0"?>
<svg xmlns="http://www.w3.org/2000/svg" id="Capa_1" enable-background="new 0 0 512.057 512.057" height="512px" viewBox="0 0 512.057 512.057" width="512px" class=""><g transform="matrix(0.860058, 0, 0, 0.860058, 35.829, 35.829)"><g><path d="m292.598 402.347c0 27.07-14.71 50.71-36.57 63.35-10.76 6.23-23.25 9.79-36.57 9.79h-182.86v-219.43h109.72c12.63 0 24.88 1.6 36.57 4.6 16.68 4.3 48.72 32.54 73.14 59.6 16.51 18.3 29.53 36.06 31.97 45.52 3 11.69 4.6 23.94 4.6 36.57z" fill="#eef7fe" data-original="#EEF7FE"/><path d="m292.598 402.347c0 27.07-14.71 50.71-36.57 63.35-10.76 6.23-23.25 9.79-36.57 9.79h-73.14v-219.43c12.63 0 24.88 1.6 36.57 4.6 16.68 4.3 48.72 32.54 73.14 59.6 16.51 18.3 29.53 36.06 31.97 45.52 3 11.69 4.6 23.94 4.6 36.57z" fill="#c0defe" data-original="#C0DEFE"/><path d="m453.888 172.573v118.02h-30v-118.02c0-15.21-7.71-29.11-20.61-37.18l-147.25-92.03-10.48-6.55c-13.72-8.57-30.35-9.01-44.5-1.17s-22.59 22.18-22.59 38.35c0 14.72 7.31 28.37 19.56 36.51l58.01 38.59 28.04 18.65c18.51 12.31 30.39 32.05 32.59 54.17s-5.55 43.82-21.27 59.54l-39.36 39.5-7.39 7.42-21.25-21.18 28.64-28.74 18.13-18.2c9.35-9.35 13.95-22.23 12.65-35.37-1.31-13.13-8.36-24.85-19.35-32.16l-11.43-7.6-74.62-49.64c-20.63-13.72-32.95-36.71-32.95-61.49 0-27.24 14.22-51.38 38.05-64.59 21.98-12.18 47.55-12.5 69.52-1.12 1.83.95 3.64 1.98 5.42 3.09l157.73 98.58c21.73 13.59 34.71 37 34.71 62.62z" fill="#455da0" data-original="#455DA0" class=""/><path d="m475.458 292.627v162.29h-73.14v-162.29c0-20.2 16.37-36.57 36.57-36.57 10.1 0 19.24 4.09 25.86 10.71s10.71 15.76 10.71 25.86z" fill="#b6edfe" data-original="#B6EDFE"/><circle cx="73.171" cy="438.91" fill="#455da0" r="73.143" data-original="#455DA0" class=""/><path d="m287.998 365.773h-68.54c-20.2 0-36.57-16.37-36.57-36.57v-68.55c28.75 7.41 54.08 23.33 73.14 44.93 15.01 17.01 26.14 37.54 31.97 60.19z" fill="#00b3ff" data-original="#00B3FF"/><path d="m512.028 473.337v38.72h-146.29v-38.72c0-19.01 15.42-34.43 34.43-34.43h77.43c19.02 0 34.43 15.42 34.43 34.43z" fill="#455da0" data-original="#455DA0" class=""/><path d="m58.13 423.91h30.083v30h-30.083z" fill="#b6edfe" data-original="#B6EDFE"/><path d="m475.458 292.627v162.29h-36.57v-198.86c10.1 0 19.24 4.09 25.86 10.71s10.71 15.76 10.71 25.86z" fill="#99bef3" data-original="#99BEF3" class=""/><path d="m512.028 473.337v38.72h-73.14v-73.15h38.71c19.02 0 34.43 15.42 34.43 34.43z" fill="#214070" data-original="#214070" class="active-path" style="fill:#214070"/></g></g> </svg>
