<?xml version="1.0"?>
<svg xmlns="http://www.w3.org/2000/svg" id="_x31__x2C_5" enable-background="new 0 0 36 36" height="512px" viewBox="0 0 36 36" width="512px" class=""><g><path d="m27.623 4.167c-6.917 0-11.667-3.583-15-3.583s-10.333 1.916-10.333 17.249 9.417 17.583 13.083 17.583c17.167.001 24.5-31.249 12.25-31.249z" fill="#efefef" data-original="#EFEFEF" class=""/><g fill="#a4afc1"><path d="m12.033 3.467h2v1h-2z" transform="matrix(.707 -.707 .707 .707 1.012 10.378)" data-original="#A4AFC1"/><path d="m7.967 7.533h2v1h-2z" transform="matrix(.707 -.707 .707 .707 -3.054 8.693)" data-original="#A4AFC1"/><path d="m8.644 2.967h1v2h-1z" transform="matrix(.707 -.707 .707 .707 -.128 7.626)" data-original="#A4AFC1"/></g><circle cx="11.25" cy="20" fill="#2fdf84" r="4.5" data-original="#2FDF84"/><circle cx="27" cy="27" fill="#f3f3f1" r="2.25" data-original="#F3F3F1" class=""/><circle cx="26" cy="10" fill="#f3f3f1" r="3.25" data-original="#F3F3F1" class=""/><path d="m9 20c0-2.094 1.437-3.839 3.375-4.341-.362-.094-.734-.159-1.125-.159-2.485 0-4.5 2.015-4.5 4.5s2.015 4.5 4.5 4.5c.391 0 .763-.065 1.125-.159-1.938-.502-3.375-2.247-3.375-4.341z" fill="#00b871" data-original="#00B871"/><path d="m27 27c0-.831.455-1.548 1.125-1.938-.332-.193-.713-.312-1.125-.312-1.243 0-2.25 1.007-2.25 2.25s1.007 2.25 2.25 2.25c.412 0 .793-.119 1.125-.312-.67-.39-1.125-1.107-1.125-1.938z" fill="#d5dbe1" data-original="#D5DBE1" class=""/><path d="m25 10c0-1.398.887-2.579 2.125-3.038-.352-.131-.728-.212-1.125-.212-1.795 0-3.25 1.455-3.25 3.25s1.455 3.25 3.25 3.25c.397 0 .773-.082 1.125-.212-1.238-.459-2.125-1.64-2.125-3.038z" fill="#d5dbe1" data-original="#D5DBE1" class=""/><path d="m11.25 25.25c-2.895 0-5.25-2.355-5.25-5.25s2.355-5.25 5.25-5.25 5.25 2.355 5.25 5.25-2.355 5.25-5.25 5.25zm0-9c-2.067 0-3.75 1.682-3.75 3.75s1.683 3.75 3.75 3.75 3.75-1.682 3.75-3.75-1.683-3.75-3.75-3.75z" data-original="#000000" class="active-path" style="fill:#3A2C60" data-old_color="#000000"/><path d="m27 30c-1.654 0-3-1.346-3-3s1.346-3 3-3 3 1.346 3 3-1.346 3-3 3zm0-4.5c-.827 0-1.5.673-1.5 1.5s.673 1.5 1.5 1.5 1.5-.673 1.5-1.5-.673-1.5-1.5-1.5z" data-original="#000000" class="active-path" style="fill:#3A2C60" data-old_color="#000000"/><path d="m26 14c-2.206 0-4-1.794-4-4s1.794-4 4-4 4 1.794 4 4-1.794 4-4 4zm0-6.5c-1.379 0-2.5 1.122-2.5 2.5s1.121 2.5 2.5 2.5 2.5-1.122 2.5-2.5-1.121-2.5-2.5-2.5z" data-original="#000000" class="active-path" style="fill:#3A2C60" data-old_color="#000000"/><path d="m14.064 13.845h10.082v1.5h-10.082z" transform="matrix(.832 -.555 .555 .832 -4.887 13.049)" data-original="#000000" class="active-path" style="fill:#3A2C60" data-old_color="#000000"/><path d="m19.385 18.749h1.5v10.492h-1.5z" transform="matrix(.401 -.916 .916 .401 -9.923 32.81)" data-original="#000000" class="active-path" style="fill:#3A2C60" data-old_color="#000000"/></g> </svg>
