<svg height="512" viewBox="0 0 64 64" width="512" xmlns="http://www.w3.org/2000/svg"><g id="Bill-Payment"><path d="m50 3v53a1 1 0 0 1 -1 1h-38a1 1 0 0 1 -1-1v-53c2 0 2 4 4.01 4s2-4 4-4 2 4 4 4 2-4 4-4 2 4 4 4 2-4 4-4 2 4 4 4 2-4 4-4 2 4 3.99 4 2-4 4-4z" fill="#e6e7e8"/><path d="m37 28v14a1 1 0 0 1 -1 1h-26v-16h26a1 1 0 0 1 1 1z" fill="#d1d3d4"/><rect fill="#5aaae7" height="32" rx="2" width="22" x="39" y="29"/><rect fill="#00ccb3" height="16" rx="1" width="32" x="3" y="25"/><path d="m57 50v7h-7v-1-6z" fill="#ee8700"/><path d="m50 43h7v7h-7z" fill="#ffa733"/><path d="m43 50v7h6 1v-1-6z" fill="#ffa733"/><path d="m50 43v7h-7v-2-5z" fill="#ee8700"/><path d="m50 33h-7v6h7 7v-6z" fill="#ff9811"/><circle cx="19" cy="33" fill="#ffd422" r="4"/><g fill="#bcbec0"><path d="m29 15h10v2h-10z"/><path d="m29 19h10v2h-10z"/><path d="m17 46h12v2h-12z"/><path d="m17 50h12v2h-12z"/></g><path d="m22 15h-2a1 1 0 0 1 0-2h2a1 1 0 0 1 1 1h2a3 3 0 0 0 -3-3v-1h-2v1a3 3 0 0 0 0 6h2a1 1 0 0 1 0 2h-2a1 1 0 0 1 -1-1h-2a3 3 0 0 0 3 3v1h2v-1a3 3 0 0 0 0-6z" fill="#ed1c24"/><path d="m8 32h-2v-3a1 1 0 0 1 1-1h3v2h-2z" fill="#00b39d"/><path d="m33 32h-2v-2h-2v-2h3a1 1 0 0 1 1 1z" fill="#00b39d"/><path d="m10 38h-3a1 1 0 0 1 -1-1v-3h2v2h2z" fill="#00b39d"/><path d="m32 38h-3v-2h2v-2h2v3a1 1 0 0 1 -1 1z" fill="#00b39d"/><path d="m31 46h4v2h-4z" fill="#bcbec0"/><path d="m31 50h4v2h-4z" fill="#bcbec0"/></g></svg>