<svg id="Flat" height="512" viewBox="0 0 512 512" width="512" xmlns="http://www.w3.org/2000/svg"><path d="m312 432h176v64h-176z" fill="#eb352f"/><rect fill="#57c1ff" height="448" rx="16" width="240" x="152" y="24"/><path d="m152 384v8a16 16 0 0 0 16 16h208a16 16 0 0 0 16-16v-288a16 16 0 0 0 -16-16h-208a16 16 0 0 0 -16 16z" fill="#65dcff"/><circle cx="328" cy="56" fill="#808080" r="8"/><circle cx="360" cy="56" fill="#808080" r="8"/><path d="m240 432h64v16h-64z" fill="#2b7cd4"/><path d="m240 48h64v16h-64z" fill="#2b7cd4"/><path d="m456 214.63v217.37h-64v-24l-10.75-10.75a63.99478 63.99478 0 0 1 0-90.5l10.75-10.75-46-46a25.45584 25.45584 0 0 1 36-36l10 10v-64h9.37a54.62742 54.62742 0 0 1 54.63 54.63z" fill="#ffc7cc"/><path d="m413.65553 234.3445a7.99811 7.99811 0 0 1 -11.311 0l-10.34453-10.3445v-22.63l21.65658 21.66446a7.99812 7.99812 0 0 1 -.00105 11.31004z" fill="#fe99a0"/><path d="m216 312h72v48h-72z" fill="#85b200"/><path d="m312 88 24.16407.16519a24 24 0 0 1 23.83593 23.99944v71.83537h-48z" fill="#85b200"/><path d="m24 408v-72a24 24 0 0 1 24-24h192a24 24 0 0 0 -24 24v72z" fill="#c8ea6d"/><path d="m264 336a24 24 0 0 0 24 24 24 24 0 0 0 24-24v-224a24 24 0 0 1 24-24h-192a24 24 0 0 0 -24 24v200h120a24 24 0 0 1 24 24z" fill="#a0cc00"/><g fill="#85b200"><path d="m152 112h136v16h-136z"/><path d="m144 144h32v16h-32z"/><path d="m256 144h32v16h-32z"/><path d="m144 176h48v16h-48z"/><path d="m256 176h32v16h-32z"/><path d="m256 208h32v16h-32z"/><path d="m256 272h32v16h-32z"/><path d="m144 208h32v16h-32z"/><path d="m144 240h144v16h-144z"/><path d="m144 272h64v16h-64z"/></g><path d="m80 336h80v16h-80z" fill="#a0cc00"/><path d="m96 368h48v16h-48z" fill="#a0cc00"/></svg>