<?xml version="1.0"?>
<svg xmlns="http://www.w3.org/2000/svg" height="512px" viewBox="0 0 512 512" width="512px" class="hovered-paths"><g transform="matrix(0.860058, 0, 0, 0.860058, 35.825, 35.825)"><g id="Flat"><path d="m256 24c-114.88 0-208 50.14-208 112s93.12 112 208 112 208-50.14 208-112-93.12-112-208-112zm-132.69 80a176.3983 176.3983 0 0 1 33.59-16c25.94-9.39 59.45-16 99.1-16s73.16 6.61 99.1 16a176.3983 176.3983 0 0 1 33.59 16z" fill="#2d80b3" data-original="#2D80B3" class=""/><path d="m64 136h384v272h-384z" fill="#8acce7" data-original="#8ACCE7" class=""/><path d="m48 136h16a0 0 0 0 1 0 0v112a0 0 0 0 1 0 0h-16a24 24 0 0 1 -24-24v-64a24 24 0 0 1 24-24z" fill="#396795" data-original="#396795"/><path d="m448 136h16a24 24 0 0 1 24 24v64a24 24 0 0 1 -24 24h-16a0 0 0 0 1 0 0v-112a0 0 0 0 1 0 0z" fill="#396795" data-original="#396795"/><path d="m64 408h384a0 0 0 0 1 0 0 48 48 0 0 1 -48 48h-288a48 48 0 0 1 -48-48 0 0 0 0 1 0 0z" fill="#2d80b3" data-original="#2D80B3" class=""/><path d="m112 456h48v32h-48z" fill="#396795" data-original="#396795"/><path d="m352 456h48v32h-48z" fill="#396795" data-original="#396795"/><path d="m136 192h240v160h-240z" fill="#c4d4e0" data-original="#C4D4E0"/><path d="m200 288h112v32h-112z" fill="#808393" data-original="#808393"/><g fill="#a6b2bc"><path d="m200 288h56v32h-56z" data-original="#A6B2BC"/><circle cx="344" cy="224" r="8" data-original="#A6B2BC"/><circle cx="344" cy="320" r="8" data-original="#A6B2BC"/><circle cx="344" cy="256" r="8" data-original="#A6B2BC"/><circle cx="344" cy="288" r="8" data-original="#A6B2BC"/><circle cx="168" cy="224" r="8" data-original="#A6B2BC"/><circle cx="168" cy="320" r="8" data-original="#A6B2BC"/><circle cx="168" cy="256" r="8" data-original="#A6B2BC"/><circle cx="168" cy="288" r="8" data-original="#A6B2BC"/></g><path d="m88 88h68.9a176.3983 176.3983 0 0 0 -33.59 16h-35.31z" fill="#396795" data-original="#396795"/><path d="m424 88v16h-35.31a176.3983 176.3983 0 0 0 -33.59-16z" fill="#396795" data-original="#396795"/><path d="m200 224h112v64h-112z" fill="#a2c32a" data-original="#A2C32A" class="active-path" style="fill:#A2C32A"/></g></g> </svg>
