<?xml version="1.0"?>
<svg xmlns="http://www.w3.org/2000/svg" height="512px" viewBox="0 0 58 56" width="512px" class=""><g transform="matrix(0.860058, 0, 0, 0.860058, 4.0583, 3.91836)"><g id="Page-1" fill="none" fill-rule="evenodd"><g id="029---Paragraph-Conversation" fill-rule="nonzero"><path id="Shape" d="m44 3v16c0 1.6568542-1.3431458 3-3 3h-27.62c-.2448424.0002019-.4811027.0902227-.664.253l-6.3 5.6c-.32777192.2918659-.80754441.3359023-1.18297051.1085801s-.55875385-.6728689-.45202949-1.0985801l.9-3.616c.0759644-.2979874.01060057-.6143551-.17723574-.8578394-.1878363-.2434843-.47725422-.3870051-.78476426-.3891606h-1.719c-1.65685425 0-3-1.3431458-3-3v-16c0-1.65685425 1.34314575-3 3-3h38c1.6568542 0 3 1.34314575 3 3z" fill="#f29c1f" data-original="#F29C1F"/><path id="Shape" d="m58 30v16c0 1.6568542-1.3431458 3-3 3h-1.753c-.3034776-.0002514-.5906495.1373237-.7806334.3739771s-.2622214.5467766-.1963666.8430229l.985 4.431c.0962195.4338802-.1054526.8792021-.4950227 1.0930837-.38957.2138816-.8735516.144997-1.1879773-.1690837l-6.279-6.279c-.1874927-.1875494-.4418052-.2929434-.707-.293h-27.586c-1.6568542 0-3-1.3431458-3-3v-16c0-1.6568542 1.3431458-3 3-3h38c1.6568542 0 3 1.3431458 3 3z" fill="#3b97d3" data-original="#3B97D3" class=""/><g fill="#fff"><path id="Shape" d="m11 7h-5c-.55228475 0-1-.44771525-1-1s.44771525-1 1-1h5c.5522847 0 1 .44771525 1 1s-.4477153 1-1 1z" data-original="#FFF" class="active-path" style="fill:#FFFFFF" data-old_color="#FFF"/><path id="Shape" d="m38 7h-23c-.5522847 0-1-.44771525-1-1s.4477153-1 1-1h23c.5522847 0 1 .44771525 1 1s-.4477153 1-1 1z" data-original="#FFF" class="active-path" style="fill:#FFFFFF" data-old_color="#FFF"/><path id="Shape" d="m38 12h-5c-.5522847 0-1-.4477153-1-1s.4477153-1 1-1h5c.5522847 0 1 .4477153 1 1s-.4477153 1-1 1z" data-original="#FFF" class="active-path" style="fill:#FFFFFF" data-old_color="#FFF"/><path id="Shape" d="m29 12h-23c-.55228475 0-1-.4477153-1-1s.44771525-1 1-1h23c.5522847 0 1 .4477153 1 1s-.4477153 1-1 1z" data-original="#FFF" class="active-path" style="fill:#FFFFFF" data-old_color="#FFF"/><path id="Shape" d="m11 17h-5c-.55228475 0-1-.4477153-1-1s.44771525-1 1-1h5c.5522847 0 1 .4477153 1 1s-.4477153 1-1 1z" data-original="#FFF" class="active-path" style="fill:#FFFFFF" data-old_color="#FFF"/><path id="Shape" d="m38 17h-23c-.5522847 0-1-.4477153-1-1s.4477153-1 1-1h23c.5522847 0 1 .4477153 1 1s-.4477153 1-1 1z" data-original="#FFF" class="active-path" style="fill:#FFFFFF" data-old_color="#FFF"/><path id="Shape" d="m25 34h-5c-.5522847 0-1-.4477153-1-1s.4477153-1 1-1h5c.5522847 0 1 .4477153 1 1s-.4477153 1-1 1z" data-original="#FFF" class="active-path" style="fill:#FFFFFF" data-old_color="#FFF"/><path id="Shape" d="m52 34h-23c-.5522847 0-1-.4477153-1-1s.4477153-1 1-1h23c.5522847 0 1 .4477153 1 1s-.4477153 1-1 1z" data-original="#FFF" class="active-path" style="fill:#FFFFFF" data-old_color="#FFF"/><path id="Shape" d="m52 39h-5c-.5522847 0-1-.4477153-1-1s.4477153-1 1-1h5c.5522847 0 1 .4477153 1 1s-.4477153 1-1 1z" data-original="#FFF" class="active-path" style="fill:#FFFFFF" data-old_color="#FFF"/><path id="Shape" d="m43 39h-23c-.5522847 0-1-.4477153-1-1s.4477153-1 1-1h23c.5522847 0 1 .4477153 1 1s-.4477153 1-1 1z" data-original="#FFF" class="active-path" style="fill:#FFFFFF" data-old_color="#FFF"/><path id="Shape" d="m25 44h-5c-.5522847 0-1-.4477153-1-1s.4477153-1 1-1h5c.5522847 0 1 .4477153 1 1s-.4477153 1-1 1z" data-original="#FFF" class="active-path" style="fill:#FFFFFF" data-old_color="#FFF"/><path id="Shape" d="m52 44h-23c-.5522847 0-1-.4477153-1-1s.4477153-1 1-1h23c.5522847 0 1 .4477153 1 1s-.4477153 1-1 1z" data-original="#FFF" class="active-path" style="fill:#FFFFFF" data-old_color="#FFF"/></g></g></g></g> </svg>
