<svg height="423.25333pt" viewBox="0 0 423.25333 423.25333" width="423.25333pt" xmlns="http://www.w3.org/2000/svg"><g fill="#0e65e5"><path d="m259.414062 314.027344c0 22.621094-18.339843 40.960937-40.960937 40.960937s-40.960937-18.339843-40.960937-40.960937 18.339843-40.960938 40.960937-40.960938 40.960937 18.339844 40.960937 40.960938zm0 0"/><path d="m218.453125 361.8125c-26.347656 0-47.785156-21.4375-47.785156-47.785156s21.4375-47.789063 47.785156-47.789063 47.785156 21.441407 47.785156 47.789063-21.4375 47.785156-47.785156 47.785156zm0-81.917969c-18.820313 0-34.132813 15.3125-34.132813 34.132813 0 18.820312 15.3125 34.132812 34.132813 34.132812s34.132813-15.3125 34.132813-34.132812c0-18.820313-15.3125-34.132813-34.132813-34.132813zm0 0"/><path d="m286.71875 259.414062c-3.414062 0-6.832031-1.273437-9.484375-3.832031-15.671875-15.140625-36.546875-23.476562-58.78125-23.476562s-43.109375 8.335937-58.777344 23.476562c-5.425781 5.230469-14.070312 5.085938-19.308593-.335937-5.238282-5.425782-5.089844-14.066406.332031-19.304688 20.792969-20.082031 48.40625-31.140625 77.753906-31.140625 29.351563 0 56.960937 11.058594 77.753906 31.140625 5.425781 5.238282 5.574219 13.878906.332031 19.304688-2.675781 2.773437-6.246093 4.167968-9.820312 4.167968zm0 0"/><path d="m286.71875 266.238281c-5.332031 0-10.386719-2.039062-14.226562-5.746093-14.390626-13.90625-33.578126-21.558594-54.039063-21.558594s-39.648437 7.652344-54.035156 21.554687c-8.125 7.847657-21.117188 7.617188-28.960938-.496093-7.84375-8.125-7.621093-21.117188.5-28.960938 22.074219-21.316406 51.375-33.058594 82.496094-33.058594s60.421875 11.742188 82.496094 33.054688c8.121093 7.847656 8.34375 20.839844.5 28.960937-3.886719 4.03125-9.121094 6.25-14.730469 6.25zm-68.265625-40.957031c24.015625 0 46.578125 9.019531 63.523437 25.390625 2.628907 2.535156 7.132813 2.457031 9.648438-.164063 2.617188-2.714843 2.542969-7.042968-.164062-9.660156-19.511719-18.839844-45.441407-29.222656-73.007813-29.222656s-53.496094 10.382812-73.007813 29.226562c-2.707031 2.613282-2.78125 6.941407-.167968 9.65625 2.609375 2.691407 6.933594 2.773438 9.65625.160157 16.941406-16.367188 39.503906-25.386719 63.519531-25.386719zm0 0"/><path d="m320.851562 221.480469c-3.503906 0-7.003906-1.339844-9.667968-4.015625-25.6875-25.777344-59.835938-39.972656-96.144532-39.972656-36.308593 0-70.457031 14.195312-96.140624 39.976562-5.324219 5.324219-13.972657 5.34375-19.308594.03125-5.34375-5.324219-5.355469-13.964844-.03125-19.3125 30.84375-30.953125 71.855468-48 115.480468-48s84.636719 17.046875 115.484376 48c5.324218 5.347656 5.308593 13.984375-.035157 19.3125-2.660156 2.652344-6.148437 3.980469-9.636719 3.980469zm0 0"/><path d="m320.851562 228.304688c-5.476562 0-10.628906-2.140626-14.5-6.019532-24.398437-24.484375-56.824218-37.964844-91.3125-37.964844-34.484374 0-66.914062 13.480469-91.304687 37.964844-7.988281 7.980469-20.972656 8.003906-28.960937.054688-7.996094-7.972656-8.019532-20.96875-.054688-28.96875 32.136719-32.25 74.867188-50.011719 120.320312-50.011719 45.453126 0 88.183594 17.761719 120.320313 50.007813 7.96875 8.003906 7.945313 21-.050781 28.96875-3.867188 3.851562-9 5.96875-14.457032 5.96875zm-105.8125-57.636719c38.144532 0 74.007813 14.90625 100.980469 41.980469 2.570313 2.585937 7.070313 2.585937 9.652344.019531 2.664063-2.660157 2.671875-6.996094.015625-9.667969-29.558594-29.652344-68.851562-45.988281-110.648438-45.988281-41.796874 0-81.089843 16.335937-110.644531 45.996093-2.660156 2.664063-2.652343 7 .015625 9.660157 2.660156 2.644531 6.996094 2.636719 9.65625-.027344 26.96875-27.066406 62.828125-41.972656 100.972656-41.972656zm0 0"/><path d="m361.515625 184.320312c-3.644531 0-7.296875-1.394531-10.03125-4.167968-36.472656-36.933594-84.933594-57.273438-136.445313-57.273438-51.511718 0-99.96875 20.339844-136.445312 57.273438-5.351562 5.429687-14.179688 5.574218-19.726562.335937-5.539063-5.242187-5.6875-13.886719-.332032-19.308593 41.777344-42.308594 97.359375-65.605469 156.503906-65.605469 59.144532 0 114.726563 23.296875 156.507813 65.605469 5.351563 5.421874 5.203125 14.066406-.335937 19.304687-2.707032 2.5625-6.203126 3.835937-9.695313 3.835937zm0 0"/><path d="m361.515625 191.148438c-5.65625 0-10.941406-2.203126-14.890625-6.203126-35.179688-35.617187-81.914062-55.238281-131.585938-55.238281-49.671874 0-96.40625 19.621094-131.589843 55.246094-7.917969 8.019531-21.054688 8.253906-29.269531.5-4.027344-3.820313-6.296876-8.9375-6.390626-14.441406-.09375-5.5 1.996094-10.691407 5.886719-14.632813 43.074219-43.613281 100.382813-67.632812 161.363281-67.632812 60.984376 0 118.292969 24.019531 161.363282 67.632812 3.890625 3.941406 5.980468 9.136719 5.886718 14.632813-.09375 5.5-2.359374 10.621093-6.382812 14.433593-3.890625 3.675782-9 5.703126-14.390625 5.703126zm-146.476563-88.75c-57.300781 0-111.160156 22.582031-151.648437 63.582031-1.285156 1.300781-1.980469 3.007812-1.945313 4.800781.027344 1.796875.777344 3.484375 2.113282 4.746094 2.863281 2.699218 7.421875 2.632812 10.175781-.167969 37.773437-38.246094 87.953125-59.304687 141.304687-59.304687 53.355469 0 103.535157 21.058593 141.304688 59.296874 2.652344 2.695313 7.433594 2.769532 10.179688.175782 1.332031-1.257813 2.085937-2.949219 2.113281-4.746094.035156-1.792969-.660157-3.5-1.949219-4.800781-40.488281-41-94.34375-63.582031-151.648438-63.582031zm0 0"/></g><path d="m259.414062 307.199219c0 22.621093-18.339843 40.960937-40.960937 40.960937s-40.960937-18.339844-40.960937-40.960937c0-22.621094 18.339843-40.960938 40.960937-40.960938s40.960937 18.339844 40.960937 40.960938zm0 0" fill="#94c1ff"/><path d="m218.453125 354.988281c-26.347656 0-47.785156-21.441406-47.785156-47.789062 0-26.347657 21.4375-47.785157 47.785156-47.785157s47.785156 21.4375 47.785156 47.785157c0 26.347656-21.4375 47.789062-47.785156 47.789062zm0-81.921875c-18.820313 0-34.132813 15.3125-34.132813 34.132813 0 18.820312 15.3125 34.132812 34.132813 34.132812s34.132813-15.3125 34.132813-34.132812c0-18.820313-15.3125-34.132813-34.132813-34.132813zm0 0" fill="#0e65e5"/><path d="m238.933594 314.027344c-3.769532 0-6.828125-3.054688-6.828125-6.828125 0-7.527344-6.121094-13.652344-13.652344-13.652344-3.769531 0-6.828125-3.054687-6.828125-6.828125s3.058594-6.824219 6.828125-6.824219c15.054687 0 27.308594 12.246094 27.308594 27.304688 0 3.773437-3.058594 6.828125-6.828125 6.828125zm0 0" fill="#fff"/><path d="m286.71875 252.585938c-3.414062 0-6.832031-1.273438-9.484375-3.832032-15.671875-15.140625-36.546875-23.472656-58.78125-23.472656s-43.109375 8.332031-58.777344 23.472656c-5.425781 5.230469-14.070312 5.085938-19.308593-.332031-5.238282-5.429687-5.089844-14.066406.332031-19.308594 20.792969-20.082031 48.40625-31.140625 77.753906-31.140625 29.351563 0 56.960937 11.058594 77.753906 31.140625 5.425781 5.238281 5.574219 13.878907.332031 19.304688-2.675781 2.777343-6.246093 4.167969-9.820312 4.167969zm0 0" fill="#d7e9ff"/><path d="m286.71875 259.414062c-5.332031 0-10.386719-2.039062-14.226562-5.746093-14.390626-13.910157-33.578126-21.5625-54.039063-21.5625s-39.648437 7.652343-54.035156 21.554687c-8.125 7.847656-21.117188 7.621094-28.960938-.492187-7.84375-8.128907-7.621093-21.121094.5-28.960938 22.074219-21.320312 51.375-33.058593 82.496094-33.058593s60.421875 11.738281 82.496094 33.050781c8.121093 7.847656 8.34375 20.839843.5 28.960937-3.886719 4.03125-9.121094 6.253906-14.730469 6.253906zm-68.265625-40.960937c24.015625 0 46.578125 9.019531 63.523437 25.394531 2.628907 2.53125 7.132813 2.445313 9.648438-.167968 2.617188-2.714844 2.542969-7.039063-.164062-9.660157-19.511719-18.839843-45.441407-29.21875-73.007813-29.21875s-53.496094 10.378907-73.007813 29.226563c-2.707031 2.613281-2.78125 6.9375-.167968 9.652344 2.609375 2.691406 6.933594 2.78125 9.65625.160156 16.941406-16.367188 39.503906-25.386719 63.519531-25.386719zm0 0" fill="#0e65e5"/><path d="m320.851562 214.652344c-3.503906 0-7.003906-1.339844-9.667968-4.015625-25.6875-25.777344-59.835938-39.96875-96.144532-39.96875-36.308593 0-70.457031 14.191406-96.140624 39.972656-5.324219 5.324219-13.972657 5.347656-19.308594.035156-5.34375-5.328125-5.355469-13.96875-.03125-19.3125 30.84375-30.957031 71.855468-48.003906 115.480468-48.003906s84.636719 17.046875 115.484376 48c5.324218 5.347656 5.308593 13.988281-.035157 19.3125-2.660156 2.65625-6.148437 3.980469-9.636719 3.980469zm0 0" fill="#d7e9ff"/><path d="m320.851562 221.480469c-5.476562 0-10.628906-2.140625-14.5-6.019531-24.398437-24.488282-56.824218-37.96875-91.3125-37.96875-34.484374 0-66.914062 13.480468-91.304687 37.96875-7.988281 7.980468-20.972656 7.992187-28.960937.050781-7.996094-7.972657-8.019532-20.964844-.054688-28.964844 32.136719-32.253906 74.867188-50.011719 120.320312-50.011719 45.453126 0 88.183594 17.757813 120.320313 50.003906 7.96875 8.007813 7.945313 21-.050781 28.96875-3.867188 3.851563-9 5.972657-14.457032 5.972657zm-105.8125-57.640625c38.144532 0 74.007813 14.90625 100.980469 41.980468 2.570313 2.585938 7.070313 2.585938 9.652344.019532 2.664063-2.660156 2.671875-6.992188.015625-9.664063-29.558594-29.65625-68.851562-45.988281-110.648438-45.988281-41.796874 0-81.089843 16.332031-110.644531 45.992188-2.660156 2.664062-2.652343 7 .015625 9.660156 2.660156 2.648437 6.996094 2.640625 9.65625-.027344 26.96875-27.066406 62.828125-41.972656 100.972656-41.972656zm0 0" fill="#0e65e5"/><path d="m361.515625 177.492188c-3.644531 0-7.296875-1.390626-10.03125-4.164063-36.472656-36.933594-84.933594-57.273437-136.445313-57.273437-51.511718 0-99.96875 20.339843-136.445312 57.273437-5.351562 5.425781-14.179688 5.574219-19.726562.332031-5.539063-5.238281-5.6875-13.886718-.332032-19.304687 41.777344-42.308594 97.359375-65.609375 156.503906-65.609375 59.144532 0 114.726563 23.300781 156.507813 65.605468 5.351563 5.421876 5.203125 14.066407-.335937 19.308594-2.707032 2.558594-6.203126 3.832032-9.695313 3.832032zm0 0" fill="#d7e9ff"/><path d="m361.515625 184.320312c-5.65625 0-10.941406-2.199218-14.890625-6.199218-35.179688-35.621094-81.914062-55.242188-131.585938-55.242188-49.671874 0-96.40625 19.621094-131.589843 55.246094-7.917969 8.019531-21.054688 8.25-29.269531.5-4.027344-3.816406-6.296876-8.9375-6.390626-14.4375s1.996094-10.695312 5.886719-14.632812c43.074219-43.613282 100.382813-67.632813 161.363281-67.632813 60.984376 0 118.292969 24.019531 161.363282 67.632813 3.890625 3.941406 5.980468 9.132812 5.886718 14.632812-.09375 5.496094-2.359374 10.621094-6.382812 14.433594-3.890625 3.671875-9 5.699218-14.390625 5.699218zm-146.476563-88.746093c-57.300781 0-111.160156 22.578125-151.648437 63.578125-1.285156 1.300781-1.980469 3.007812-1.945313 4.800781.027344 1.800781.777344 3.484375 2.113282 4.746094 2.863281 2.707031 7.421875 2.625 10.175781-.167969 37.773437-38.246094 87.953125-59.304688 141.304687-59.304688 53.355469 0 103.535157 21.058594 141.304688 59.300782 2.652344 2.691406 7.433594 2.765625 10.179688.171875 1.332031-1.257813 2.085937-2.945313 2.113281-4.746094.035156-1.792969-.660157-3.5-1.949219-4.796875-40.488281-41.003906-94.34375-63.582031-151.648438-63.582031zm0 0" fill="#0e65e5"/><path d="m211.625 423.253906c-116.6875 0-211.625-94.933594-211.625-211.628906 0-116.691406 94.9375-211.625 211.625-211.625 116.691406 0 211.628906 94.933594 211.628906 211.625 0 116.695312-94.9375 211.628906-211.628906 211.628906zm0-409.601562c-109.160156 0-197.972656 88.8125-197.972656 197.972656s88.8125 197.976562 197.972656 197.976562c109.164062 0 197.976562-88.816406 197.976562-197.976562s-88.8125-197.972656-197.976562-197.972656zm0 0" fill="#0e65e5"/><path d="m64.851562 358.398438c-1.746093 0-3.492187-.664063-4.824218-2-2.667969-2.664063-2.667969-6.984376 0-9.652344l286.71875-286.71875c2.667968-2.667969 6.988281-2.667969 9.652344 0 2.667968 2.664062 2.667968 6.988281 0 9.652344l-286.71875 286.71875c-1.332032 1.335937-3.082032 2-4.828126 2zm0 0" fill="#0e65e5"/><path d="m320.851562 327.679688c-3.769531 0-6.824218-3.054688-6.824218-6.828126v-27.304687c0-3.773437 3.054687-6.828125 6.824218-6.828125 3.773438 0 6.828126 3.054688 6.828126 6.828125v27.304687c0 3.773438-3.054688 6.828126-6.828126 6.828126zm0 0" fill="#0e65e5"/><path d="m334.507812 314.027344h-27.308593c-3.769531 0-6.824219-3.054688-6.824219-6.828125 0-3.773438 3.054688-6.824219 6.824219-6.824219h27.308593c3.769532 0 6.824219 3.050781 6.824219 6.824219 0 3.773437-3.054687 6.828125-6.824219 6.828125zm0 0" fill="#0e65e5"/><path d="m177.492188 75.09375c-3.769532 0-6.824219-3.054688-6.824219-6.828125v-27.304687c0-3.773438 3.054687-6.828126 6.824219-6.828126 3.769531 0 6.828124 3.054688 6.828124 6.828126v27.304687c0 3.773437-3.058593 6.828125-6.828124 6.828125zm0 0" fill="#0e65e5"/><path d="m191.148438 61.441406h-27.308594c-3.769532 0-6.828125-3.054687-6.828125-6.828125 0-3.773437 3.058593-6.828125 6.828125-6.828125h27.308594c3.769531 0 6.824218 3.054688 6.824218 6.828125 0 3.773438-3.054687 6.828125-6.824218 6.828125zm0 0" fill="#0e65e5"/></svg>