<?xml version="1.0" encoding="utf-8"?><svg xmlns="http://www.w3.org/2000/svg" xmlns:xlink="http://www.w3.org/1999/xlink" width="1440" height="804" preserveAspectRatio="xMidYMid" viewBox="0 0 1440 804" style="z-index:1;display:block;background-color:rgb(255, 255, 255);animation-play-state:paused" ><g transform="" style="animation-play-state:paused" ><linearGradient id="lg-0.3515633215985897" x1="0" x2="1" y1="0" y2="0" style="animation-play-state:paused" ><stop stop-color="#ff00ff" offset="0" style="animation-play-state:paused" ></stop>

  
<stop stop-color="#00ffff" offset="1" style="animation-play-state:paused" ></stop></linearGradient>
<path d="M0 0L0 669.5862426757812Q144 988.1896362304688 288 953.4144287109375T576 482.5224609375T864 397.7253112792969T1152 761.9202270507812T1440 997.3079833984375L1440 0z" fill="url(#lg-0.3515633215985897)" opacity="0.4" style="opacity:0.4;animation-play-state:paused" ></path>
<path d="M0 0L0 626.6002197265625Q144 738.2703857421875 288 720.5237426757812T576 660.181396484375T864 702.8768310546875T1152 677.158447265625T1440 650.1494750976562L1440 0z" fill="url(#lg-0.3515633215985897)" opacity="0.4" style="opacity:0.4;animation-play-state:paused" ></path>
<path d="M0 0L0 907.2889404296875Q144 505.30352783203125 288 483.35845947265625T576 580.67529296875T864 769.9957275390625T1152 633.848388671875T1440 419.52984619140625L1440 0z" fill="url(#lg-0.3515633215985897)" opacity="0.4" style="opacity:0.4;animation-play-state:paused" ></path>
<path d="M0 0L0 841.0546264648438Q144 788.5036010742188 288 758.9326171875T576 736.759521484375T864 467.9098815917969T1152 990.4066772460938T1440 404.50323486328125L1440 0z" fill="url(#lg-0.3515633215985897)" opacity="0.4" style="opacity:0.4;animation-play-state:paused" ></path></g></svg>