<?xml version="1.0"?>
<svg xmlns="http://www.w3.org/2000/svg" height="512px" viewBox="0 0 512 512" width="512px"><g transform="matrix(0.860058, 0, 0, 0.860058, 35.825, 35.825)"><g id="flat"><path d="m419.838 235.126-12.568-67.866a48 48 0 0 0 -47.2-39.26h-208.143a48 48 0 0 0 -47.2 39.26l-12.565 67.866a1205.994 1205.994 0 0 0 -20.162 219.599v1.275l16 32h336l16-32v-1.275a1205.994 1205.994 0 0 0 -20.162-219.599z" fill="#cbcbcb" data-original="#CBCBCB"/><path d="m434.14 336h-356.28q-5.85 59.16-5.86 118.73v1.27h368v-1.27q0-59.505-5.86-118.73z" fill="#ea9d2d" data-original="#EA9D2D"/><rect fill="#2cbff4" height="64" rx="8" width="192" x="160" y="160" data-original="#2CBFF4"/><rect fill="#a8a8a8" height="168" rx="24" width="48" x="232" y="256" data-original="#A8A8A8"/><circle cx="256" cy="280" fill="#eaeae8" r="24" data-original="#EAEAE8"/><path d="m440 456h-368l16 32h336z" fill="#cbcbcb" data-original="#CBCBCB"/><circle cx="226.408" cy="192" fill="#6ee7f5" r="8" data-original="#6EE7F5"/><circle cx="256" cy="192" fill="#6ee7f5" r="8" data-original="#6EE7F5"/><circle cx="288" cy="192" fill="#6ee7f5" r="8" data-original="#6EE7F5"/><path d="m405.657 410.343-16-16a8 8 0 0 0 -11.314 11.314l2.343 2.343h-28.686a16 16 0 0 1 0-32h32a8 8 0 0 0 0-16h-32a32 32 0 0 0 0 64h28.686l-2.343 2.343a8 8 0 0 0 11.314 11.314l16-16a8 8 0 0 0 0-11.314z" fill="#c38325" data-original="#C38325" class="active-path"/><path d="m160 360h-32a8 8 0 0 0 0 16h32a16 16 0 0 1 0 32h-28.686l2.343-2.343a8 8 0 0 0 -11.314-11.314l-16 16a8 8 0 0 0 0 11.314l16 16a8 8 0 0 0 11.314-11.314l-2.343-2.343h28.686a32 32 0 0 0 0-64z" fill="#c38325" data-original="#C38325" class="active-path"/><g fill="#6ee7f5"><path d="m261 104a8 8 0 0 1 -8-8c0-6.927-1.675-9.942-3.993-14.115-2.676-4.817-6.007-10.812-6.007-21.885 0-1.647.074-3.25.22-4.765a8 8 0 0 1 15.926 1.53c-.1 1.008-.146 2.1-.146 3.235 0 6.927 1.675 9.942 3.993 14.115 2.676 4.817 6.007 10.812 6.007 21.885a8 8 0 0 1 -8 8z" data-original="#6EE7F5"/><path d="m260.193 40a8.008 8.008 0 0 1 -7.81-9.766 28.207 28.207 0 0 0 .617-6.234 8 8 0 0 1 16 0 43.855 43.855 0 0 1 -1.012 9.764 8 8 0 0 1 -7.795 6.236z" data-original="#6EE7F5"/><path d="m309 104a8 8 0 0 1 -8-8 28.207 28.207 0 0 0 -.617-6.236 8 8 0 1 1 15.605-3.528 43.855 43.855 0 0 1 1.012 9.764 8 8 0 0 1 -8 8z" data-original="#6EE7F5"/><path d="m299.173 72a8 8 0 0 1 -7.953-7.235c-.146-1.515-.22-3.118-.22-4.765 0-11.073 3.331-17.068 6.007-21.885 2.318-4.173 3.993-7.188 3.993-14.115a8 8 0 0 1 16 0c0 11.073-3.331 17.068-6.007 21.885-2.318 4.173-3.993 7.188-3.993 14.115 0 1.139.049 2.227.146 3.235a8 8 0 0 1 -7.2 8.728c-.258.025-.517.037-.773.037z" data-original="#6EE7F5"/><path d="m213 104a8 8 0 0 1 -8-8 28.207 28.207 0 0 0 -.617-6.236 8 8 0 1 1 15.6-3.528 43.855 43.855 0 0 1 1.017 9.764 8 8 0 0 1 -8 8z" data-original="#6EE7F5"/><path d="m203.173 72a8 8 0 0 1 -7.953-7.235c-.146-1.515-.22-3.118-.22-4.765 0-11.073 3.331-17.068 6.007-21.885 2.318-4.173 3.993-7.188 3.993-14.115a8 8 0 0 1 16 0c0 11.073-3.331 17.068-6.007 21.885-2.318 4.173-3.993 7.188-3.993 14.115 0 1.139.049 2.227.146 3.235a8 8 0 0 1 -7.2 8.728c-.258.025-.517.037-.773.037z" data-original="#6EE7F5"/></g><path d="m113.463 304a8 8 0 0 1 -7.88-9.433l1.455-8a8 8 0 0 1 15.742 2.864l-1.455 8a8 8 0 0 1 -7.862 6.569z" fill="#eaeae8" data-original="#EAEAE8"/><path d="m120.009 268a8.005 8.005 0 0 1 -7.88-9.432l5.091-28a8 8 0 0 1 15.742 2.862l-5.091 28a8 8 0 0 1 -7.862 6.57z" fill="#eaeae8" data-original="#EAEAE8"/></g></g> </svg>
