<?xml version="1.0"?>
<svg xmlns="http://www.w3.org/2000/svg" height="512px" viewBox="0 0 512 512" width="512px" class=""><g transform="matrix(0.860058, 0, 0, 0.860058, 35.825, 35.825)"><g id="flat"><path d="m144 400h112v48h-112z" fill="#cbcbcb" data-original="#CBCBCB"/><path d="m400 48a8 8 0 0 1 -8-8v-16a8 8 0 0 1 16 0v16a8 8 0 0 1 -8 8z" fill="#eaeae8" data-original="#EAEAE8" class=""/><path d="m448 184h-336a48 48 0 0 1 -48-48v-48a48 48 0 0 1 48-48h299.156a68.846 68.846 0 0 1 57.282 30.656 68.848 68.848 0 0 1 11.562 38.188v6.312a68.848 68.848 0 0 1 -11.562 38.188z" fill="#2ad3b3" data-original="#2AD3B3" class=""/><path d="m241.167 408h-82.334a62.833 62.833 0 0 1 -56.2-34.733 62.838 62.838 0 0 1 -6.633-28.1v-73.167h208v73.167a62.838 62.838 0 0 1 -6.633 28.1 62.833 62.833 0 0 1 -56.2 34.733z" fill="#eaeae8" data-original="#EAEAE8" class=""/><path d="m104 184h104a0 0 0 0 1 0 0v22a10 10 0 0 1 -10 10h-84a10 10 0 0 1 -10-10v-22a0 0 0 0 1 0 0z" fill="#eaeae8" data-original="#EAEAE8" class=""/><path d="m448 488h-24l-24-16h-264l-16 16h-32v-16h-8a16 16 0 0 1 -16-16 16 16 0 0 1 16-16h368z" fill="#2ad3b3" data-original="#2AD3B3" class=""/><path d="m328 184 17.263 63.3a191.211 191.211 0 0 1 6.737 50.305v7.2a191.2 191.2 0 0 1 -56 135.195h152l-16.587-91.227a299.44 299.44 0 0 1 16.587-164.773z" fill="#eaeae8" data-original="#EAEAE8" class=""/><rect fill="#cbcbcb" height="24" rx="12" width="224" x="88" y="248" data-original="#CBCBCB"/><path d="m120 216h32v32h-32z" fill="#a8a8a8" data-original="#A8A8A8"/><path d="m120 216h32v16h-32z" fill="#656666" data-original="#656666"/><path d="m248.006 376a8 8 0 0 1 -3.584-15.157 20.833 20.833 0 0 0 11.578-18.732v-6.111a8 8 0 0 1 16 0v6.111a36.744 36.744 0 0 1 -20.422 33.044 7.97 7.97 0 0 1 -3.572.845z" fill="#fbfdff" data-original="#FBFDFF"/><path d="m264 320a8 8 0 0 1 -8-8v-8a8 8 0 0 1 16 0v8a8 8 0 0 1 -8 8z" fill="#fbfdff" data-original="#FBFDFF"/><g fill="#27c5a7"><circle cx="376" cy="112" r="24" data-original="#27C5A7" class="active-path" style="fill:#27C5A7"/><circle cx="296" cy="112" r="24" data-original="#27C5A7" class="active-path" style="fill:#27C5A7"/><path d="m120 88h-16a8 8 0 0 1 0-16h16a8 8 0 0 1 0 16z" data-original="#27C5A7" class="active-path" style="fill:#27C5A7"/><path d="m192 88h-40a8 8 0 0 1 0-16h40a8 8 0 0 1 0 16z" data-original="#27C5A7" class="active-path" style="fill:#27C5A7"/><path d="m478.79 96h-38.79a8 8 0 0 1 0-16h33.67a69.288 69.288 0 0 1 3.38 8.9 66.222 66.222 0 0 1 1.74 7.1z" data-original="#27C5A7" class="active-path" style="fill:#27C5A7"/><path d="m480 112v3.16a68.792 68.792 0 0 1 -1.21 12.84h-38.79a8 8 0 0 1 0-16z" data-original="#27C5A7" class="active-path" style="fill:#27C5A7"/><path d="m473.59 144.16a68.508 68.508 0 0 1 -5.15 9.18l-4.44 6.66h-24a8 8 0 0 1 0-16h32a7.523 7.523 0 0 1 1.59.16z" data-original="#27C5A7" class="active-path" style="fill:#27C5A7"/></g></g></g> </svg>
