<?xml version="1.0"?>
<svg xmlns="http://www.w3.org/2000/svg" id="Flat" height="512px" viewBox="0 0 512 512" width="512px" class="hovered-paths"><g transform="matrix(0.860058, 0, 0, 0.860058, 35.825, 35.825)"><g fill="#ffcd62"><path d="m144 128h176v48h-176z" data-original="#FFCD62"/><path d="m176 64h16v48h-16z" data-original="#FFCD62"/><path d="m208 80h16v32h-16z" data-original="#FFCD62"/><path d="m272 96h16v16h-16z" data-original="#FFCD62"/><path d="m240 64h16v48h-16z" data-original="#FFCD62"/></g><path d="m192 48h16v64h-16z" fill="#ddb66a" data-original="#DDB66A"/><path d="m256 80h16v32h-16z" fill="#ddb66a" data-original="#DDB66A"/><path d="m224 96h16v16h-16z" fill="#ddb66a" data-original="#DDB66A"/><path d="m384 104 40-48 40 32-40 48z" fill="#414649" data-original="#414649"/><path d="m360 160h64v24h-64z" fill="#414649" data-original="#414649"/><path d="m488 184h-96v-40l80-88h16z" fill="#7e8589" data-original="#7E8589"/><path d="m328 112h-296a8 8 0 0 0 0 16h96v56a8 8 0 0 0 8 8h192a8 8 0 0 0 8-8v-64a8 8 0 0 0 -8-8zm-8 32h-16v-16h16zm-112-16h16v16h-16zm-16 16h-16v-16h16zm48-16h16v16h-16zm32 0h16v16h-16zm-112 0v16h-16v-16zm-16 48v-16h16v16zm32 0v-16h16v16zm32 0v-16h16v16zm32 0v-16h16v16zm32 0v-16h16v16zm32 0v-16h16v16z" fill="#a0a8b3" data-original="#A0A8B3" class="hovered-path"/><path d="m392 232v-48h32v32z" fill="#414649" data-original="#414649"/><path d="m104 184h288a0 0 0 0 1 0 0v176a16 16 0 0 1 -16 16h-256a16 16 0 0 1 -16-16v-176a0 0 0 0 1 0 0z" fill="#ced8dc" data-original="#CED8DC" class="active-path" style="fill:#CED8DC"/><path d="m192 304h288v160h-288z" fill="#7e8589" data-original="#7E8589"/><circle cx="336" cy="384" fill="#414649" r="16" data-original="#414649"/></g> </svg>
