<?xml version="1.0"?>
<svg xmlns="http://www.w3.org/2000/svg" height="512px" viewBox="0 0 512 512" width="512px"><g transform="matrix(0.860058, 0, 0, 0.860058, 35.825, 35.825)"><g id="flat"><path d="m88 104h336v384h-336z" fill="#e4e4e2" data-original="#E4E4E2"/><circle cx="256" cy="256" fill="#dbdbdb" r="120" data-original="#DBDBDB"/><circle cx="256" cy="256" fill="#fd9226" r="88" data-original="#FD9226"/><path d="m88 24h336v80h-336z" fill="#dbdbdb" data-original="#DBDBDB"/><circle cx="248" cy="64" fill="#cbcbcb" r="24" data-original="#CBCBCB"/><circle cx="248" cy="64" fill="#ebebeb" r="16" data-original="#EBEBEB"/><path d="m344 24h80v48h-80z" fill="#428dc5" data-original="#428DC5"/><path d="m352 24h72v40h-72z" fill="#4799cf" data-original="#4799CF"/><path d="m88 24h96v80h-96z" fill="#cbcbcb" data-original="#CBCBCB"/><path d="m112 56h48v16h-48z" fill="#dbdbdb" data-original="#DBDBDB"/><path d="m288 40h32v16h-32z" fill="#fd9226" data-original="#FD9226"/><path d="m288 72h32v16h-32z" fill="#f7ba61" data-original="#F7BA61"/><path d="m88 424h336v64h-336z" fill="#dbdbdb" data-original="#DBDBDB"/><g fill="#da7e21"><path d="m248 320a8 8 0 0 1 -8-8c0-12.293 5.5-18.715 9.926-23.874 3.657-4.268 6.074-7.087 6.074-13.461s-2.417-9.194-6.074-13.462c-4.426-5.159-9.926-11.58-9.926-23.873s5.5-18.713 9.926-23.872c3.657-4.267 6.074-7.085 6.074-13.458a8 8 0 0 1 16 0c0 12.292-5.5 18.713-9.926 23.872-3.657 4.267-6.074 7.085-6.074 13.458s2.417 9.193 6.074 13.461c4.426 5.159 9.926 11.581 9.926 23.874s-5.5 18.714-9.926 23.873c-3.657 4.268-6.074 7.087-6.074 13.462a8 8 0 0 1 -8 8z" data-original="#DA7E21"/><path d="m293.762 304a8 8 0 0 1 -6.246-12.992c.784-.983 1.6-1.932 2.409-2.881 3.658-4.268 6.075-7.087 6.075-13.462s-2.417-9.194-6.074-13.462c-4.426-5.159-9.926-11.58-9.926-23.873s5.5-18.714 9.927-23.873c.692-.808 1.385-1.613 2.053-2.449a8 8 0 0 1 12.5 9.984c-.784.982-1.6 1.931-2.407 2.878-3.658 4.268-6.075 7.087-6.075 13.46s2.417 9.193 6.074 13.461c4.428 5.159 9.928 11.581 9.928 23.874s-5.5 18.715-9.927 23.875c-.692.808-1.386 1.615-2.054 2.452a7.985 7.985 0 0 1 -6.257 3.008z" data-original="#DA7E21"/><path d="m213.762 304a8 8 0 0 1 -6.246-12.992c.784-.983 1.6-1.932 2.409-2.881 3.658-4.268 6.075-7.087 6.075-13.462s-2.417-9.194-6.074-13.462c-4.426-5.159-9.926-11.58-9.926-23.873s5.5-18.714 9.927-23.873c.692-.808 1.385-1.613 2.053-2.449a8 8 0 0 1 12.5 9.984c-.784.982-1.595 1.931-2.407 2.878-3.658 4.268-6.075 7.087-6.075 13.46s2.417 9.193 6.074 13.461c4.428 5.159 9.928 11.581 9.928 23.874s-5.5 18.715-9.927 23.875c-.692.808-1.386 1.615-2.054 2.452a7.985 7.985 0 0 1 -6.257 3.008z" data-original="#DA7E21"/></g><path d="m88 424h336v16h-336z" fill="#cbcbcb" data-original="#CBCBCB"/><path d="m88 104h336v8h-336z" fill="#c3c3c3" data-original="#C3C3C3"/><path d="m88 104h96v8h-96z" fill="#b9b9b9" data-original="#B9B9B9" class="active-path" style="fill:#B9B9B9"/></g></g> </svg>
