<?xml version="1.0"?>
<svg xmlns="http://www.w3.org/2000/svg" id="Capa_1" enable-background="new 0 0 512 512" height="512px" viewBox="0 0 512 512" width="512px"><g transform="matrix(0.860058, 0, 0, 0.860058, 35.825, 35.825)"><g><path d="m326.57 392.6v74.34l-38.68 45.06h-63.78l-38.68-45.06v-74.34z" fill="#b6edfe" data-original="#B6EDFE"/><path d="m256 392.6h70.57v74.34l-38.68 45.06h-31.89z" fill="#99bef3" data-original="#99BEF3"/><path d="m357.4 101.4v232.85l-10.15 11.58h-182.5l-10.15-11.58v-232.85c0-56 45.4-101.4 101.4-101.4s101.4 45.4 101.4 101.4z" fill="#fff576" data-original="#FFF576"/><path d="m357.4 101.4v232.85l-10.15 11.58h-91.25v-345.83c56 0 101.4 45.4 101.4 101.4z" fill="#ffda2d" data-original="#FFDA2D"/><path d="m290.79 163.61-16.01 15 16.01 15v54.36l-16.01 15 16.01 15v67.86h-69.58v-67.86l16.01-15-16.01-15v-54.36l16.01-15-16.01-15v-59.6h69.58z" fill="#ffda2d" data-original="#FFDA2D"/><path d="m290.79 163.61-16.01 15 16.01 15v54.36l-16.01 15 16.01 15v67.86h-34.79v-241.82h34.79z" fill="#fcb503" data-original="#FCB503"/><path d="m417.786 90.423h50.576v29.999h-50.576z" fill="#ffda2d" transform="matrix(.924 -.383 .383 .924 -6.616 177.585)" data-original="#FFDA2D"/><path d="m428.078 235.113h30v50.576h-30z" fill="#ffda2d" transform="matrix(.383 -.924 .924 .383 32.947 570.11)" data-original="#FFDA2D"/><path d="m433.206 167.917h78.794v30h-78.794z" fill="#ffda2d" data-original="#FFDA2D"/><path d="m221.21 247.97h69.58v30h-69.58z" fill="#fcb503" data-original="#FCB503"/><path d="m221.21 163.61h69.58v30h-69.58z" fill="#fcb503" data-original="#FCB503"/><g><path d="m357.4 334.25-30.83 74.36h-141.14l-30.83-74.36z" fill="#455da0" data-original="#455DA0"/><path d="m357.4 334.25-30.83 74.36h-70.57v-74.36z" fill="#214070" data-original="#214070"/></g><path d="m256 163.61h34.79v30h-34.79z" fill="#d97c00" data-original="#D97C00" class="active-path"/><path d="m256 247.97h34.79v30h-34.79z" fill="#d97c00" data-original="#D97C00" class="active-path"/><g fill="#fff576"><path d="m53.926 80.135h30v50.576h-30z" transform="matrix(.383 -.924 .924 .383 -54.849 128.755)" data-original="#FFF576"/><path d="m43.633 245.401h50.576v30h-50.576z" transform="matrix(.924 -.383 .383 .924 -94.397 46.191)" data-original="#FFF576"/><path d="m0 167.917h78.794v30h-78.794z" data-original="#FFF576"/></g></g></g> </svg>
