<?xml version="1.0"?>
<svg xmlns="http://www.w3.org/2000/svg" xmlns:xlink="http://www.w3.org/1999/xlink" version="1.1" id="Capa_1" x="0px" y="0px" viewBox="0 0 468.293 468.293" style="enable-background:new 0 0 468.293 468.293;" xml:space="preserve" width="512px" height="512px" class="hovered-paths"><g transform="matrix(0.860058, 0, 0, 0.860058, 32.7668, 32.7668)"><path style="fill:#64798A;" d="M0,354.445V50.957C0,44.061,5.591,38.47,12.488,38.47h443.317c6.897,0,12.488,5.591,12.488,12.488  v303.488c0,6.897-5.591,12.488-12.488,12.488H12.488C5.591,366.933,0,361.342,0,354.445z" data-original="#64798A" class="hovered-path"/><rect x="19.787" y="58.256" style="fill:#27A2DB;" width="428.706" height="288.905" data-original="#27A2DB"/><polygon style="fill:#2D93BA;" points="448.506,347.146 19.787,347.146 448.506,58.258 " data-original="#2D93BA"/><path style="fill:#3A556A" d="M306.699,368.965v-2.032H161.594v2.032c0,18.944-13.311,34.779-31.09,38.662  c-5.032,1.099-8.484,5.759-8.484,10.91l0,0c0,6.233,5.053,11.286,11.286,11.286h201.68c6.233,0,11.286-5.053,11.286-11.286l0,0  c0-5.151-3.452-9.811-8.484-10.91C320.01,403.744,306.699,387.909,306.699,368.965z" data-original="#3A556A" class="active-path"/></g> </svg>
