<svg height="512" viewBox="0 0 64 64" width="512" xmlns="http://www.w3.org/2000/svg"><path d="m55 41h-46l-1-14h48z" fill="#cfdfe8"/><path d="m9 41h46v16h-46z" fill="#7d8d9c"/><path d="m20 45h4v4h-4z" fill="#55b56a"/><path d="m20 49h4v4h-4z" fill="#e1462b"/><path d="m40 45h4v4h-4z" fill="#55b56a"/><path d="m40 49h4v4h-4z" fill="#e1462b"/><path d="m36 49a3.657 3.657 0 0 1 -.13 1 4 4 0 1 1 0-2 3.657 3.657 0 0 1 .13 1z" fill="#394d5c"/><path d="m36 49a3.657 3.657 0 0 1 -.13 1h-3.87v-2h3.87a3.657 3.657 0 0 1 .13 1z" fill="#7fcac9"/><path d="m14 50h-2v-6h4v2h-2z" fill="#f4f4e6"/><path d="m11 57h8v4h-8z" fill="#394d5c"/><path d="m45 57h8v4h-8z" fill="#394d5c"/><path d="m56 27h-48l-1-14h50z" fill="#aabece"/><path d="m13 7h38a6 6 0 0 1 6 6 0 0 0 0 1 0 0h-50a0 0 0 0 1 0 0 6 6 0 0 1 6-6z" fill="#7d8d9c"/><path d="m25 3h14v4h-14z" fill="#5a6470"/><path d="m12 52h2v2h-2z" fill="#f4f4e6"/><path d="m52 54h-4v-2h2v-4h2z" fill="#f4f4e6"/><path d="m48 32.96c-4 0-4-1.92-8-1.92s-4 1.92-8 1.92-4-1.92-8-1.92-4 1.92-8 1.92c-3.9 0-4.006-1.818-7.707-1.911l.707 9.951h46l.711-9.951c-3.705.093-3.811 1.911-7.711 1.911z" fill="#87cee9"/><g fill="#f4f4e6"><path d="m23 34h2v2h-2z"/><path d="m30 36h2v2h-2z"/><path d="m14 36h2v2h-2z"/><path d="m39 34h2v2h-2z"/></g><path d="m20 24c0 2.21-1.79 3-4 3s-4-.79-4-3a5.472 5.472 0 0 1 3-4.8 2.6 2.6 0 0 1 2 0 5.472 5.472 0 0 1 3 4.8z" fill="#e5e4c6"/><path d="m17 19.2v3.8h-2v-3.8a2.6 2.6 0 0 1 2 0z" fill="#e97424"/><path d="m28 24c0 2.21-1.79 3-4 3s-4-.79-4-3a5.472 5.472 0 0 1 3-4.8 2.6 2.6 0 0 1 2 0 5.472 5.472 0 0 1 3 4.8z" fill="#f4f4e6"/><path d="m25 19.2v3.8h-2v-3.8a2.6 2.6 0 0 1 2 0z" fill="#e97424"/><path d="m36 24c0 2.21-1.79 3-4 3s-4-.79-4-3a5.472 5.472 0 0 1 3-4.8 2.6 2.6 0 0 1 2 0 5.472 5.472 0 0 1 3 4.8z" fill="#e5e4c6"/><path d="m33 19.2v3.8h-2v-3.8a2.6 2.6 0 0 1 2 0z" fill="#e97424"/><path d="m44 24c0 2.21-1.79 3-4 3s-4-.79-4-3a5.472 5.472 0 0 1 3-4.8 2.6 2.6 0 0 1 2 0 5.472 5.472 0 0 1 3 4.8z" fill="#f4f4e6"/><path d="m41 19.2v3.8h-2v-3.8a2.6 2.6 0 0 1 2 0z" fill="#e97424"/><path d="m52 24c0 2.21-1.79 3-4 3s-4-.79-4-3a5.472 5.472 0 0 1 3-4.8 2.6 2.6 0 0 1 2 0 5.472 5.472 0 0 1 3 4.8z" fill="#e5e4c6"/><path d="m49 19.2v3.8h-2v-3.8a2.6 2.6 0 0 1 2 0z" fill="#e97424"/></svg>