<svg height="512pt" viewBox="-85 0 512 512.05696" width="512pt" xmlns="http://www.w3.org/2000/svg"><path d="m136.664062 468.621094v26.371094c-.015624 4.707031-3.828124 8.519531-8.535156 8.53125h-34.132812c-4.707032-.011719-8.519532-3.824219-8.535156-8.53125v-30.296876zm0 0" fill="#a4c2f7"/><path d="m256.128906 464.695312v30.296876c-.011718 4.707031-3.824218 8.519531-8.535156 8.53125h-34.132812c-4.707032-.011719-8.519532-3.824219-8.53125-8.53125v-26.371094zm0 0" fill="#a4c2f7"/><path d="m332.929688 39.308594v399.363281c.011718 8.1875-5.785157 15.238281-13.824219 16.808594-53.09375 10.066406-107.078125 14.667969-161.109375 13.738281-45.480469-.65625-90.820313-5.25-135.507813-13.738281-8.039062-1.570313-13.835937-8.621094-13.824219-16.808594v-399.363281c-.011718-8.1875 5.785157-15.238282 13.824219-16.808594 9.640625-1.792969 19.199219-3.5 28.839844-4.949219 8.535156-1.28125 17.066406-2.390625 25.601563-3.414062v139.519531c-.050782 46.902344 34.589843 86.613281 81.066406 92.929688 4.234375.65625 8.515625.972656 12.800781.9375 24.898437.015624 48.78125-9.871094 66.386719-27.476563 17.609375-17.605469 27.492187-41.492187 27.480468-66.390625v-139.519531c18.257813 2.132812 36.351563 4.949219 54.441407 8.363281 8.039062 1.570312 13.835937 8.621094 13.824219 16.808594zm0 0" fill="#cad9fc"/><path d="m307.328125 39.308594v399.363281c.011719 8.1875-5.785156 15.238281-13.824219 16.808594-44.6875 8.488281-90.027344 13.082031-135.507812 13.738281-45.480469-.65625-90.820313-5.25-135.507813-13.738281-8.039062-1.570313-13.835937-8.621094-13.824219-16.808594v-399.363281c-.011718-8.1875 5.785157-15.238282 13.824219-16.808594 9.640625-1.792969 44.796875-3.5 54.441407-4.949219v136.105469c-.015626 24.898438 9.871093 48.785156 27.476562 66.390625s41.488281 27.492187 66.390625 27.476563c4.285156.035156 8.566406-.28125 12.796875-.9375 46.476562-6.316407 81.117188-46.027344 81.070312-92.929688v-139.519531c8.53125 1.023437-8.535156 2.132812 0 3.414062 9.640626 1.449219 19.199219 3.15625 28.839844 4.949219 8.039063 1.570312 13.835938 8.621094 13.824219 16.808594zm0 0" fill="#e8edfc"/><path d="m264.664062 14.136719v139.519531c.011719 24.898438-9.871093 48.785156-27.480468 66.390625-17.605469 17.605469-41.488282 27.492187-66.386719 27.476563-4.285156.035156-8.566406-.28125-12.800781-.9375-46.476563-6.316407-81.117188-46.027344-81.066406-92.929688v-139.519531c62.355468-7.417969 125.375-7.417969 187.734374 0zm0 0" fill="#7facfa"/><path d="m239.0625 14.136719v139.519531c.050781 46.902344-34.59375 86.613281-81.066406 92.929688-46.476563-6.316407-81.117188-46.027344-81.066406-92.929688v-139.519531c26.914062-3.179688 53.96875-5.003907 81.066406-5.460938 27.097656.457031 54.152344 2.28125 81.066406 5.460938zm0 0" fill="#a4c2f7"/><path d="m230.527344 153.65625c.011718 15.847656-6.277344 31.046875-17.480469 42.25-11.207031 11.207031-26.40625 17.496094-42.25 17.484375-4.304687-.015625-8.59375-.472656-12.800781-1.367187-27.410156-6.019532-46.933594-30.304688-46.933594-58.367188s19.523438-52.34375 46.933594-58.367188c4.207031-.894531 8.496094-1.351562 12.800781-1.367187 15.84375-.011719 31.042969 6.28125 42.25 17.484375 11.203125 11.203125 17.492187 26.40625 17.480469 42.25zm0 0" fill="#e8edfc"/><path d="m204.929688 153.65625c0-32.234375-21.011719-58.367188-46.933594-58.367188s-46.933594 26.132813-46.933594 58.367188c0 32.238281 21.011719 58.367188 46.933594 58.367188s46.933594-26.128907 46.933594-58.367188zm0 0" fill="#fff"/><path d="m128.128906 290.191406h85.332032c4.714843 0 8.535156 3.820313 8.535156 8.53125v34.132813c0 4.714843-3.820313 8.535156-8.535156 8.535156h-85.332032c-4.710937 0-8.535156-3.820313-8.535156-8.535156v-34.132813c0-4.710937 3.824219-8.53125 8.535156-8.53125zm0 0" fill="#7facfa"/><path d="m128.128906 290.191406h59.734375c4.710938 0 8.53125 3.820313 8.53125 8.53125v34.132813c0 4.714843-3.820312 8.535156-8.53125 8.535156h-59.734375c-4.710937 0-8.535156-3.820313-8.535156-8.535156v-34.132813c0-4.710937 3.824219-8.53125 8.535156-8.53125zm0 0" fill="#a4c2f7"/><path d="m76.929688 14.136719c-8.535157 1.023437-17.066407 2.132812-25.601563 3.414062-9.640625 1.449219-19.199219 3.15625-28.839844 4.949219-8.039062 1.570312-13.835937 8.621094-13.824219 16.808594v399.363281c-.011718 8.1875 5.785157 15.238281 13.824219 16.808594 20.890625 3.980469 41.902344 6.996093 62.972657 9.253906v30.257813c.015624 4.707031 3.828124 8.519531 8.535156 8.53125h25.597656c-4.707031-.011719-8.519531-3.824219-8.53125-8.53125v-30.257813c-21.074219-2.253906-42.082031-5.273437-62.976562-9.253906-8.039063-1.570313-13.835938-8.621094-13.824219-16.808594v-399.363281c-.011719-8.1875 5.785156-15.238282 13.824219-16.808594 9.644531-1.792969 19.199218-3.5 28.84375-4.949219 8.53125-1.28125 17.066406-2.390625 25.597656-3.414062 26.453125-3.097657 52.964844-4.902344 79.53125-5.414063-8.019532-.121094-16.042969-.164062-24.0625-.046875-27.097656.457031-54.152344 2.28125-81.066406 5.460938zm0 0" fill="#fff"/><path d="m17.195312 39.308594v399.363281h-17.066406v-399.363281zm0 0" fill="#fff"/><g fill="#428dff"><path d="m8.664062 81.976562c4.707032-.011718 8.519532-3.824218 8.53125-8.53125v-34.136718h-17.066406v34.136718c.015625 4.707032 3.828125 8.519532 8.535156 8.53125zm0 0"/><path d="m.128906 438.671875h17.066406v-296.960937c0-4.714844-3.820312-8.535157-8.53125-8.535157-4.714843 0-8.535156 3.820313-8.535156 8.535157zm0 0"/><path d="m17.195312 107.578125c-.035156-2.261719-.917968-4.421875-2.472656-6.058594l-1.28125-1.023437c-.476562-.324219-.992187-.582032-1.535156-.769532-.484375-.246093-1.003906-.417968-1.539062-.511718-.5625-.097656-1.132813-.152344-1.703126-.171875-2.261718.03125-4.425781.914062-6.058593 2.476562-2.070313 1.992188-2.980469 4.90625-2.410157 7.726563.570313 2.816406 2.542969 5.148437 5.222657 6.179687 1.027343.4375 2.128906.671875 3.246093.683594 2.269532.023437 4.453126-.867187 6.058594-2.472656 1.605469-1.605469 2.496094-3.789063 2.472656-6.058594zm0 0"/><path d="m170.796875 477.980469c-50.304687-.011719-100.496094-4.738281-149.917969-14.117188-12.070312-2.324219-20.7812498-12.902343-20.75-25.191406 0-4.714844 3.820313-8.535156 8.535156-8.535156 4.710938 0 8.53125 3.820312 8.53125 8.535156-.03125 4.085937 2.84375 7.625 6.855469 8.421875 96.960938 18.417969 196.523438 18.417969 293.488281 0 4.011719-.796875 6.890626-4.332031 6.855469-8.421875v-399.363281c.035157-4.085938-2.84375-7.625-6.851562-8.421875-96.964844-18.417969-196.527344-18.417969-293.488281 0-4.011719.796875-6.890626 4.332031-6.859376 8.421875 0 4.714844-3.820312 8.535156-8.53125 8.535156-4.714843 0-8.535156-3.820312-8.535156-8.535156-.027344-12.289063 8.683594-22.863282 20.753906-25.191406 99.058594-18.824219 200.773438-18.824219 299.828126 0 12.070312 2.328124 20.78125 12.902343 20.75 25.191406v399.363281c.03125 12.289063-8.683594 22.863281-20.753907 25.191406-49.417969 9.375-99.609375 14.105469-149.910156 14.117188zm0 0"/><path d="m170.796875 256.058594c-56.527344-.066406-102.335937-45.875-102.402344-102.402344v-139.519531c0-4.710938 3.820313-8.53125 8.535157-8.53125 4.710937 0 8.53125 3.820312 8.53125 8.53125v139.519531c0 47.128906 38.207031 85.335938 85.335937 85.335938s85.332031-38.207032 85.332031-85.335938v-139.519531c0-4.710938 3.820313-8.53125 8.535156-8.53125 4.710938 0 8.53125 3.820312 8.53125 8.53125v139.519531c-.0625 56.527344-45.871093 102.335938-102.398437 102.402344zm0 0"/><path d="m170.796875 221.921875c-37.703125 0-68.269531-30.5625-68.269531-68.265625s30.566406-68.265625 68.269531-68.265625 68.265625 30.5625 68.265625 68.265625c-.042969 37.683594-30.582031 68.222656-68.265625 68.265625zm0-119.464844c-28.277344 0-51.203125 22.921875-51.203125 51.199219s22.925781 51.199219 51.203125 51.199219 51.199219-22.921875 51.199219-51.199219c-.03125-28.261719-22.9375-51.167969-51.199219-51.199219zm0 0"/><path d="m170.789062 162.191406c-3.148437-.003906-6.035156-1.738281-7.519531-4.511718-1.480469-2.773438-1.320312-6.140626.425781-8.757813l17.066407-25.597656c1.679687-2.566407 4.605469-4.039063 7.667969-3.847657 3.0625.1875 5.785156 2.003907 7.136718 4.757813 1.351563 2.753906 1.121094 6.019531-.605468 8.554687l-17.066407 25.601563c-1.582031 2.378906-4.25 3.804687-7.105469 3.800781zm0 0"/><path d="m128.128906 512.058594h-34.132812c-9.421875-.011719-17.058594-7.648438-17.066406-17.066406v-30.296876c0-4.710937 3.820312-8.53125 8.53125-8.53125 4.714843 0 8.535156 3.820313 8.535156 8.53125v30.296876h34.132812v-26.371094c0-4.710938 3.820313-8.53125 8.535156-8.53125 4.710938 0 8.53125 3.820312 8.53125 8.53125v26.371094c-.007812 9.417968-7.644531 17.054687-17.066406 17.066406zm0 0"/><path d="m247.59375 512.058594h-34.132812c-9.421876-.011719-17.054688-7.648438-17.066407-17.066406v-26.371094c0-4.710938 3.820313-8.53125 8.535157-8.53125 4.710937 0 8.53125 3.820312 8.53125 8.53125v26.371094h34.132812v-30.296876c0-4.710937 3.824219-8.53125 8.535156-8.53125 4.714844 0 8.535156 3.820313 8.535156 8.53125v30.296876c-.011718 9.417968-7.648437 17.054687-17.070312 17.066406zm0 0"/><path d="m213.460938 349.921875h-85.332032c-9.421875-.007813-17.058594-7.644531-17.066406-17.066406v-34.132813c.007812-9.421875 7.644531-17.054687 17.066406-17.066406h85.332032c9.421874.011719 17.058593 7.644531 17.066406 17.066406v34.132813c-.007813 9.421875-7.644532 17.058593-17.066406 17.066406zm-85.332032-51.199219v34.132813h85.347656l-.015624-34.132813zm0 0"/><path d="m42.796875 290.191406c-4.714844 0-8.535156-3.820312-8.535156-8.535156v-8.53125c0-4.714844 3.820312-8.535156 8.535156-8.535156 4.710937 0 8.53125 3.820312 8.53125 8.535156v8.53125c0 4.714844-3.820313 8.535156-8.53125 8.535156zm0 0"/><path d="m42.796875 426.722656c-4.714844 0-8.535156-3.820312-8.535156-8.53125v-102.402344c0-4.710937 3.820312-8.53125 8.535156-8.53125 4.710937 0 8.53125 3.820313 8.53125 8.53125v102.402344c0 4.710938-3.820313 8.53125-8.53125 8.53125zm0 0"/><path d="m119.59375 384.058594h-17.066406c-4.710938 0-8.53125-3.820313-8.53125-8.535156 0-4.710938 3.820312-8.53125 8.53125-8.53125h17.066406c4.714844 0 8.535156 3.820312 8.535156 8.53125 0 4.714843-3.820312 8.535156-8.535156 8.535156zm0 0"/><path d="m119.59375 418.191406h-17.066406c-4.710938 0-8.53125-3.820312-8.53125-8.535156 0-4.710938 3.820312-8.53125 8.53125-8.53125h17.066406c4.714844 0 8.535156 3.820312 8.535156 8.53125 0 4.714844-3.820312 8.535156-8.535156 8.535156zm0 0"/><path d="m239.0625 384.058594h-17.066406c-4.714844 0-8.535156-3.820313-8.535156-8.535156 0-4.710938 3.820312-8.53125 8.535156-8.53125h17.066406c4.710938 0 8.53125 3.820312 8.53125 8.53125 0 4.714843-3.820312 8.535156-8.53125 8.535156zm0 0"/><path d="m239.0625 418.191406h-17.066406c-4.714844 0-8.535156-3.820312-8.535156-8.535156 0-4.710938 3.820312-8.53125 8.535156-8.53125h17.066406c4.710938 0 8.53125 3.820312 8.53125 8.53125 0 4.714844-3.820312 8.535156-8.53125 8.535156zm0 0"/></g></svg>